<!-- icon666.com - MILLIONS vector ICONS FREE --><svg id="Capa_1" enable-background="new 0 0 601.974 601.974" viewBox="0 0 601.974 601.974" xmlns="http://www.w3.org/2000/svg"><g><g id="line_1_x2C_5_55_"><g><path d="m488.518 346.463c-11.252-11.252-30.005-11.252-41.257 0s-11.252 30.005 0 41.257l56.259 56.259h-360.059c-45.007 0-86.264-37.506-86.264-86.264v-63.76c0-18.753-11.252-30.005-26.254-30.005s-30.005 11.252-30.005 30.005v67.511c0 78.763 63.76 142.523 142.523 142.523h363.81l-56.259 48.758c-11.252 11.252-11.252 30.005 0 41.257 3.751 3.751 11.252 7.501 18.753 7.501s15.002-3.751 18.753-7.501l105.017-105.017c11.252-11.252 11.252-30.005 0-41.257z"></path><path d="m113.456 256.448c3.751 3.751 11.252 7.501 18.753 7.501s15.002-3.751 18.753-7.501c11.252-11.252 11.252-30.005 0-41.257l-52.509-52.509h251.291c15.002 0 30.005-11.252 30.005-30.005s-15.002-26.254-30.005-26.254h-251.29l52.509-56.259c11.252-11.252 11.252-30.005 0-41.257s-26.254-11.252-37.506 0l-105.018 105.018c-11.252 11.252-11.252 30.005 0 41.257z"></path><path d="m462.264 106.424c-15.002 0-30.005 11.252-30.005 30.005s11.252 30.005 30.005 30.005c45.007 0 86.264 37.506 86.264 86.264v67.511c0 15.002 11.252 30.005 30.005 30.005s22.504-22.504 22.504-37.506v-67.511c-.001-78.763-63.761-138.773-138.773-138.773z"></path></g></g></g></svg>