<!-- icon666.com - MILLIONS vector ICONS FREE --><svg viewBox="0 0 512 512" xmlns="http://www.w3.org/2000/svg"><path d="m446 38v-38h-30v38h-40v-38h-30v38h-40v-38h-30v38h-40v-38h-30v38h-40v-38h-30v38h-40v-38h-30v38h-66v474h512v-474zm-380 30v38h30v-38h40v38h30v-38h40v38h30v-38h40v38h30v-38h40v38h30v-38h40v38h30v-38h36v74.136719h-452v-74.136719zm-36 414v-309.863281h452v309.863281zm0 0"></path><path d="m63 437.734375h386v-222.46875h-386zm30-96.234375h59.683594v66.234375h-59.683594zm177.816406-30v-66.234375h58.136719v66.234375zm58.136719 30v66.234375h-58.136719v-66.234375zm-88.136719-30h-58.136718v-66.234375h58.136718zm0 30v66.234375h-58.136718v-66.234375zm118.136719 66.234375v-66.234375h60.046875v66.234375zm60.046875-96.234375h-60.046875v-66.234375h60.046875zm-266.316406-66.234375v66.234375h-59.683594v-66.234375zm0 0"></path></svg>