<svg width="21" height="21" viewBox="0 0 21 21" fill="none" xmlns="http://www.w3.org/2000/svg">
<g clip-path="url(#clip0_88_1601)">
<path fill-rule="evenodd" clip-rule="evenodd" d="M14.5797 10.9584C14.5797 11.4841 14.1316 11.9108 13.5796 11.9108H11.5797V13.8155C11.5797 14.3412 11.1317 14.7679 10.5797 14.7679C10.0277 14.7679 9.57965 14.3412 9.57965 13.8155V11.9108H7.57966C7.02766 11.9108 6.57966 11.4841 6.57966 10.9584C6.57966 10.4327 7.02766 10.006 7.57966 10.006H9.57965V8.10124C9.57965 7.57552 10.0277 7.14886 10.5797 7.14886C11.1317 7.14886 11.5797 7.57552 11.5797 8.10124V10.006H13.5796C14.1316 10.006 14.5797 10.4327 14.5797 10.9584ZM10.5797 18.5774C6.16865 18.5774 2.57965 15.1593 2.57965 10.9584C2.57965 6.75743 6.16865 3.33933 10.5797 3.33933C14.9907 3.33933 18.5796 6.75743 18.5796 10.9584C18.5796 15.1593 14.9907 18.5774 10.5797 18.5774ZM10.5797 1.43457C5.05665 1.43457 0.579655 5.69838 0.579655 10.9584C0.579655 16.2184 5.05665 20.4822 10.5797 20.4822C16.1027 20.4822 20.5797 16.2184 20.5797 10.9584C20.5797 5.69838 16.1027 1.43457 10.5797 1.43457Z" fill="#150931"/>
</g>
<defs>
<clipPath id="clip0_88_1601">
<rect width="20" height="20" fill="white" transform="translate(0.579651 0.958496)"/>
</clipPath>
</defs>
</svg>
