<!-- icon666.com - MILLIONS vector ICONS FREE --><svg viewBox="0 0 512 512" xmlns="http://www.w3.org/2000/svg"><path d="m169.667969 249.511719c0 11.027343-8.9375 19.960937-19.960938 19.960937h-49.902343c-11.023438 0-19.960938-8.933594-19.960938-19.960937 0-11.023438 8.9375-19.960938 19.960938-19.960938h49.902343c11.023438 0 19.960938 8.9375 19.960938 19.960938zm-19.960938-96.6875h-49.902343c-11.023438 0-19.960938 8.9375-19.960938 19.960937 0 11.023438 8.9375 19.960938 19.960938 19.960938h49.902343c11.023438 0 19.960938-8.9375 19.960938-19.960938 0-11.023437-8.9375-19.960937-19.960938-19.960937zm-49.902343-36.929688h49.902343c11.023438 0 19.960938-8.933593 19.960938-19.960937 0-11.023438-8.9375-19.960938-19.960938-19.960938h-49.902343c-11.023438 0-19.960938 8.9375-19.960938 19.960938 0 11.027344 8.9375 19.960937 19.960938 19.960937zm49.902343 190.507813h-49.902343c-11.023438 0-19.960938 8.9375-19.960938 19.960937 0 11.023438 8.9375 19.960938 19.960938 19.960938h49.902343c11.023438 0 19.960938-8.9375 19.960938-19.960938 0-11.023437-8.9375-19.960937-19.960938-19.960937zm246.980469-142.789063c14.269531 5.90625 23.492188 19.707031 23.492188 35.160157v109.460937c0 15.453125-9.222657 29.257813-23.492188 35.164063-4.730469 1.957031-9.679688 2.90625-14.578125 2.90625-9.878906 0-19.566406-3.867188-26.859375-11.167969 0 0 0 0 0-.003907l-46.171875-46.222656c-19.503906-19.523437-19.503906-51.289062 0-70.8125l46.171875-46.222656c10.910156-10.921875 27.175781-14.164062 41.4375-8.261719zm-16.429688 39.714844-42.9375 42.980469c-3.960937 3.96875-3.960937 10.421875 0 14.390625l42.9375 42.984375zm90.820313 129.023437v-251.507812c0-22.015625-17.90625-39.921875-39.921875-39.921875h-181.644531v431.15625h181.644531c22.015625 0 39.921875-17.910156 39.921875-39.921875 0-11.023438 8.9375-19.960938 19.960937-19.960938 11.027344 0 19.960938 8.9375 19.960938 19.960938 0 44.027344-35.816406 79.84375-79.84375 79.84375h-351.3125c-44.027344 0-79.84375-35.816406-79.84375-79.84375v-351.3125c0-44.027344 35.816406-79.84375 79.84375-79.84375h143.496094c1.957031-.644531 4.042968-1 6.210937-1 2.171875 0 4.253907.355469 6.210938 1h195.394531c44.027344 0 79.84375 35.816406 79.84375 79.84375v251.507812c0 11.023438-8.933594 19.960938-19.960938 19.960938-11.023437 0-19.960937-8.9375-19.960937-19.960938zm-261.488281-291.429687h-129.746094c-22.011719 0-39.921875 17.90625-39.921875 39.921875v351.3125c0 22.011719 17.910156 39.921875 39.921875 39.921875h129.746094zm0 0"></path></svg>