<svg width="43" height="43" viewBox="0 0 43 43" fill="none" xmlns="http://www.w3.org/2000/svg">
<g clip-path="url(#clip0_41_1234)">
<path fill-rule="evenodd" clip-rule="evenodd" d="M16.5119 8.86239C15.2013 8.20711 13.8252 9.62661 14.5209 10.9162L20.0911 21.2419L14.5092 32.014C13.841 33.3035 15.2128 34.6952 16.5119 34.0456L39.0119 22.7956C40.1174 22.2429 40.1175 20.6652 39.0119 20.1124L16.5119 8.86239ZM19.4137 13.6674L34.987 21.454L19.2942 29.3005L23.1196 21.918C23.3479 21.4774 23.3435 20.9525 23.108 20.5158L19.4137 13.6674Z" fill="black"/>
<path d="M39.1051 20.3842L39.0682 22.6338L20.6435 22.3318L20.6803 20.0821L39.1051 20.3842Z" fill="black"/>
</g>
<defs>
<clipPath id="clip0_41_1234">
<rect width="30" height="30" fill="white" transform="translate(21.7868 0.012146) rotate(45)"/>
</clipPath>
</defs>
</svg>
