<svg width="21" height="21" viewBox="0 0 21 21" fill="none" xmlns="http://www.w3.org/2000/svg">
<path fill-rule="evenodd" clip-rule="evenodd" d="M6.54052 5.16217C7.90884 4.12839 9.60904 3.63289 11.3185 3.76967C13.028 3.90646 14.6278 4.66602 15.8143 5.90422C17.0008 7.14242 17.6915 8.77311 17.7553 10.4869C17.8192 12.2006 17.2517 13.8781 16.1605 15.2012L6.54052 5.16217ZM5.13252 6.58217C4.14853 7.90983 3.66598 9.54281 3.77029 11.1921C3.8746 12.8413 4.55904 14.4005 5.70246 15.5936C6.84588 16.7867 8.37454 17.5368 10.0179 17.7112C11.6612 17.8855 13.3132 17.4728 14.6815 16.5462L5.13252 6.58417V6.58217ZM10.7595 1.74817C8.37257 1.74817 6.08339 2.69638 4.39556 4.38421C2.70773 6.07204 1.75952 8.36122 1.75952 10.7482C1.75952 13.1351 2.70773 15.4243 4.39556 17.1121C6.08339 18.8 8.37257 19.7482 10.7595 19.7482C13.1465 19.7482 15.4357 18.8 17.1235 17.1121C18.8113 15.4243 19.7595 13.1351 19.7595 10.7482C19.7595 8.36122 18.8113 6.07204 17.1235 4.38421C15.4357 2.69638 13.1465 1.74817 10.7595 1.74817Z" fill="#FA00FF"/>
</svg>
