<svg width="20" height="21" viewBox="0 0 20 21" fill="none" xmlns="http://www.w3.org/2000/svg">
<g clip-path="url(#clip0_41_1215)">
<path d="M0 10.1194C0 15.6425 4.47691 20.1194 10 20.1194C15.5231 20.1194 20 15.6425 20 10.1194C20 4.59636 15.5231 0.119446 10 0.119446C4.47691 0.119446 0 4.59636 0 10.1194ZM18.4375 10.1194C18.4375 14.7795 14.66 18.5569 10 18.5569C5.33996 18.5569 1.5625 14.7795 1.5625 10.1194C1.5625 5.45941 5.33996 1.68195 10 1.68195C14.66 1.68195 18.4375 5.45941 18.4375 10.1194Z" fill="black"/>
<path d="M8.75 6.37187C8.75 7.06218 9.30848 7.61945 9.99879 7.61945C10.6891 7.61945 11.25 7.06218 11.25 6.37187C11.25 5.67913 10.6891 5.11945 9.99879 5.11945C9.30848 5.11945 8.75 5.67913 8.75 6.37187Z" fill="black"/>
<path d="M8.75 10.1219C8.75 10.8122 9.30848 11.3694 9.99879 11.3694C10.6891 11.3694 11.25 10.8122 11.25 10.1219C11.25 9.42913 10.6891 8.86945 9.99879 8.86945C9.30848 8.86945 8.75 9.42913 8.75 10.1219Z" fill="black"/>
<path d="M8.75 13.8694C8.75 14.5604 9.30848 15.1194 9.99879 15.1194C10.6891 15.1194 11.25 14.5604 11.25 13.8694C11.25 13.1798 10.6891 12.6194 9.99879 12.6194C9.30848 12.6194 8.75 13.1798 8.75 13.8694Z" fill="black"/>
</g>
<defs>
<clipPath id="clip0_41_1215">
<rect width="20" height="20" fill="white" transform="matrix(0 -1 1 0 0 20.1194)"/>
</clipPath>
</defs>
</svg>
