<svg width="21" height="21" viewBox="0 0 21 21" fill="none" xmlns="http://www.w3.org/2000/svg">
<path fill-rule="evenodd" clip-rule="evenodd" d="M10.2596 4.14988C6.5777 4.14988 3.59294 7.13465 3.59294 10.8165C3.59294 14.4985 6.5777 17.4832 10.2596 17.4832C13.9415 17.4832 16.9263 14.4985 16.9263 10.8165C16.9263 7.13465 13.9415 4.14988 10.2596 4.14988ZM1.92627 10.8165C1.92627 6.21417 5.65723 2.48322 10.2596 2.48322C14.8619 2.48322 18.5929 6.21417 18.5929 10.8165C18.5929 15.4189 14.8619 19.1499 10.2596 19.1499C5.65723 19.1499 1.92627 15.4189 1.92627 10.8165ZM10.1166 6.44768C10.5769 6.44768 10.9499 6.82077 10.9499 7.28102V11.4203L13.889 12.5376C14.3193 12.7011 14.5354 13.1825 14.3719 13.6126C14.2084 14.0429 13.727 14.259 13.2969 14.0955L9.82052 12.774C9.4971 12.651 9.28327 12.341 9.28327 11.995V7.28102C9.28327 6.82077 9.65635 6.44768 10.1166 6.44768Z" fill="#06EA6F"/>
</svg>
