<svg width="20" height="20" viewBox="0 0 20 20" fill="none" xmlns="http://www.w3.org/2000/svg">
<path fill-rule="evenodd" clip-rule="evenodd" d="M12.5001 2.5L13.3334 3.33333L13.3334 5H18.3334V16.6667H1.66675V5H6.66675V3.33333L7.50008 2.5H12.5001ZM3.33341 11.1303L3.33341 15H16.6667L16.6668 11.1303C15.0017 11.6067 13.3348 11.9047 11.6668 12.0238L11.6667 13.3333H8.33341L8.3334 12.0238C6.66539 11.9047 4.99845 11.6067 3.33341 11.1303ZM16.6667 6.66667H3.33341L3.33342 9.39192C5.55888 10.0755 7.78031 10.4167 10.0001 10.4167C12.2199 10.4167 14.4413 10.0755 16.6668 9.39191L16.6667 6.66667ZM11.6667 4.16667H8.33341V5H11.6667V4.16667Z" fill="#FEF400"/>
</svg>
