<svg width="31" height="31" viewBox="0 0 31 31" fill="none" xmlns="http://www.w3.org/2000/svg">
<g clip-path="url(#clip0_78_1804)">
<path d="M15.0847 3.84962L1.73284 0.288994C1.65315 0.2679 1.57206 0.258057 1.49144 0.258057C1.28659 0.258057 1.0855 0.324619 0.919561 0.45165C0.688936 0.629307 0.553467 0.903994 0.553467 1.19509V20.6459L15.0847 24.4924V3.84962ZM12.005 19.136C11.946 19.3423 11.758 19.4763 11.5546 19.4763C11.5114 19.4763 11.4683 19.4702 11.4257 19.4585L4.64425 17.5212C4.39534 17.4499 4.25097 17.1907 4.32175 16.9418C4.393 16.6924 4.65409 16.5513 4.90112 16.6193L11.6825 18.5566C11.9314 18.6279 12.0758 18.8871 12.005 19.136ZM12.005 15.8548C11.946 16.061 11.758 16.1951 11.5546 16.1951C11.5114 16.1951 11.4683 16.189 11.4257 16.1773L4.64425 14.2395C4.39534 14.1682 4.25097 13.9085 4.32175 13.6601C4.393 13.4107 4.65409 13.2696 4.90112 13.3376L11.6825 15.2754C11.9314 15.3466 12.0758 15.6063 12.005 15.8548ZM12.005 12.5735C11.946 12.7798 11.758 12.9138 11.5546 12.9138C11.5114 12.9138 11.4683 12.9077 11.4257 12.896L4.64425 10.9582C4.39534 10.887 4.25097 10.6273 4.32175 10.3788C4.393 10.1295 4.65409 9.9879 4.90112 10.0563L11.6825 11.9942C11.9314 12.0654 12.0758 12.3251 12.005 12.5735ZM12.005 9.29228C11.946 9.49853 11.758 9.63259 11.5546 9.63259C11.5114 9.63259 11.4683 9.62649 11.4257 9.61478L4.64425 7.67696C4.39534 7.60571 4.25097 7.34603 4.32175 7.09759C4.393 6.84821 4.65409 6.70712 4.90112 6.77509L11.6825 8.7129C11.9314 8.78415 12.0758 9.04384 12.005 9.29228Z" fill="#0386FF"/>
<path d="M30.1874 0.45165C30.0214 0.324619 29.8199 0.258057 29.615 0.258057C29.5344 0.258057 29.4533 0.268369 29.3741 0.288994L16.0222 3.84962V24.4924L30.5535 20.6459V1.19509C30.5535 0.903994 30.418 0.629307 30.1874 0.45165ZM19.0335 15.2576L25.8149 13.3198C26.0624 13.2518 26.323 13.3924 26.3942 13.6423C26.465 13.8907 26.3211 14.1504 26.0717 14.2217L19.2903 16.1595C19.2472 16.1712 19.2041 16.1773 19.1614 16.1773C18.9575 16.1773 18.77 16.0432 18.711 15.837C18.6402 15.5885 18.7846 15.3288 19.0335 15.2576ZM26.2138 17.5212L19.4324 19.4585C19.3897 19.4702 19.3466 19.4763 19.3035 19.4763C19.0996 19.4763 18.9121 19.3423 18.853 19.136C18.7822 18.8871 18.9261 18.6279 19.1755 18.5566L25.9569 16.6193C26.2044 16.5513 26.465 16.692 26.5363 16.9418C26.6071 17.1907 26.4627 17.4499 26.2138 17.5212ZM26.2138 10.9582L19.4324 12.896C19.3897 12.9077 19.3466 12.9138 19.3035 12.9138C19.0996 12.9138 18.9121 12.7798 18.853 12.5735C18.7822 12.3251 18.9261 12.0654 19.1755 11.9942L25.9569 10.0563C26.2044 9.9879 26.465 10.129 26.5363 10.3788C26.6071 10.6273 26.4627 10.887 26.2138 10.9582ZM26.2138 7.67696L19.4324 9.61478C19.3897 9.62649 19.3466 9.63259 19.3035 9.63259C19.0996 9.63259 18.9121 9.49853 18.853 9.29228C18.7822 9.04384 18.9261 8.78415 19.1755 8.7129L25.9569 6.77509C26.2044 6.70712 26.465 6.84774 26.5363 7.09759C26.6071 7.34603 26.4627 7.60571 26.2138 7.67696Z" fill="#0386FF"/>
<path d="M15.0847 25.4623L0.553467 21.6157V22.5209L15.0847 26.3674V25.4623Z" fill="#0386FF"/>
<path d="M16.0222 26.3674L30.5535 22.5209V21.6157L16.0222 25.4623V26.3674Z" fill="#0386FF"/>
<path d="M16.9597 27.461C16.9597 28.2378 16.3302 28.8673 15.5535 28.8673C14.7767 28.8673 14.1472 28.2378 14.1472 27.461C14.1472 27.3363 14.1688 27.2173 14.1988 27.1024L0.553467 23.4907V24.6321C0.553467 25.0568 0.838936 25.4285 1.24909 25.5382L13.3771 28.7721C13.7202 29.6412 14.563 30.2576 15.5535 30.2576C16.5439 30.2576 17.3867 29.6412 17.7299 28.7721L29.8578 25.5382C30.268 25.4285 30.5535 25.0568 30.5535 24.6321V23.4907L16.9082 27.1029C16.9382 27.2178 16.9597 27.3368 16.9597 27.461Z" fill="#0386FF"/>
</g>
<defs>
<clipPath id="clip0_78_1804">
<rect width="30" height="30" fill="white" transform="translate(0.553467 0.257568)"/>
</clipPath>
</defs>
</svg>
