<svg width="31" height="31" viewBox="0 0 31 31" fill="none" xmlns="http://www.w3.org/2000/svg">
<g clip-path="url(#clip0_60_267)">
<path fill-rule="evenodd" clip-rule="evenodd" d="M29.5575 14.1188L19.87 19.8588C19.6782 20.041 19.4328 20.1564 19.1701 20.1876C18.9723 20.2399 18.7638 20.2346 18.5689 20.1724C18.374 20.1102 18.2009 19.9936 18.0701 19.8363L12.7325 14.5513L7.38251 19.8588C7.14438 20.0938 6.82334 20.2255 6.4888 20.2255C6.15426 20.2255 5.83322 20.0938 5.59509 19.8588C5.36075 19.6244 5.22903 19.3065 5.22903 18.9751C5.22903 18.6436 5.36075 18.3257 5.59509 18.0913L11.8326 11.9038C12.0733 11.669 12.3962 11.5375 12.7325 11.5375C13.0688 11.5375 13.3918 11.669 13.6325 11.9038L19.0451 17.2701L28.4575 11.6863C28.6 11.5993 28.7598 11.5445 28.9256 11.5257C29.0915 11.5069 29.2594 11.5245 29.4177 11.5774C29.5761 11.6303 29.7211 11.717 29.8424 11.8317C29.9637 11.9464 30.0584 12.0862 30.1201 12.2413C30.2652 12.57 30.2884 12.9397 30.1852 13.2838C30.0821 13.628 29.8595 13.9241 29.5575 14.1188ZM28.9825 27.7576C29.3141 27.7576 29.6321 27.8893 29.8665 28.1237C30.1009 28.3581 30.2325 28.676 30.2325 29.0076C30.2325 29.3391 30.1009 29.657 29.8665 29.8914C29.6321 30.1259 29.3141 30.2576 28.9825 30.2576H1.48254C1.15102 30.2576 0.833023 30.1259 0.598602 29.8914C0.364182 29.657 0.232544 29.3391 0.232544 29.0076V1.50757C0.232544 1.17605 0.364182 0.858104 0.598602 0.623684C0.833023 0.389263 1.15102 0.257568 1.48254 0.257568C1.81406 0.257568 2.13207 0.389263 2.36649 0.623684C2.60091 0.858104 2.73254 1.17605 2.73254 1.50757V27.7576H28.9825Z" fill="#0386FF"/>
</g>
<defs>
<clipPath id="clip0_60_267">
<rect width="30" height="30" fill="white" transform="translate(0.232544 0.257568)"/>
</clipPath>
</defs>
</svg>
