<svg width="31" height="31" viewBox="0 0 31 31" fill="none" xmlns="http://www.w3.org/2000/svg">
<g clip-path="url(#clip0_60_274)">
<path fill-rule="evenodd" clip-rule="evenodd" d="M15.8582 15.2576C12.5492 15.2576 9.85815 12.5666 9.85815 9.25757C9.85815 5.94857 12.5492 3.25757 15.8582 3.25757C19.1672 3.25757 21.8582 5.94857 21.8582 9.25757C21.8582 12.5666 19.1672 15.2576 15.8582 15.2576ZM21.4951 16.267C23.5441 14.6185 24.8582 12.0926 24.8582 9.25757C24.8582 4.28657 20.8292 0.257568 15.8582 0.257568C10.8872 0.257568 6.85815 4.28657 6.85815 9.25757C6.85815 12.0926 8.17216 14.6185 10.2212 16.267C4.73266 18.3295 0.858154 23.4251 0.858154 30.2576H3.85815C3.85815 22.7576 9.24165 18.2576 15.8582 18.2576C22.4747 18.2576 27.8582 22.7576 27.8582 30.2576H30.8582C30.8582 23.4251 26.9836 18.3295 21.4951 16.267Z" fill="#0386FF"/>
</g>
<defs>
<clipPath id="clip0_60_274">
<rect width="30" height="30" fill="white" transform="translate(0.858154 0.257568)"/>
</clipPath>
</defs>
</svg>
