<svg width="30" height="31" viewBox="0 0 30 31" fill="none" xmlns="http://www.w3.org/2000/svg">
<g clip-path="url(#clip0_60_260)">
<path d="M29.4371 11.3843C29.2168 10.7285 28.6491 10.2504 27.9657 10.1458L20.0115 8.93038L16.4387 1.31929C16.134 0.670537 15.4829 0.257568 14.7676 0.257568C14.0518 0.257568 13.4012 0.670537 13.0965 1.31929L9.52321 8.93085L1.56899 10.1463C0.885549 10.2508 0.317893 10.7285 0.098049 11.3848C-0.121795 12.041 0.0441427 12.7638 0.527424 13.2598L6.33617 19.2162L4.96039 27.6429C4.84696 28.3404 5.14274 29.0416 5.71977 29.4494C6.29633 29.8573 7.05758 29.8985 7.67774 29.5563L14.768 25.6352L21.8584 29.5563C22.1382 29.711 22.4462 29.7869 22.7527 29.7869C23.1259 29.7869 23.499 29.6735 23.8163 29.4494C24.3934 29.0421 24.6887 28.3408 24.5752 27.6429L23.1995 19.2162L29.0087 13.2598C29.491 12.7638 29.657 12.041 29.4371 11.3843Z" fill="#0386FF"/>
</g>
<defs>
<clipPath id="clip0_60_260">
<rect width="30" height="30" fill="white" transform="translate(0.00012207 0.257568)"/>
</clipPath>
</defs>
</svg>
