<svg width="20" height="21" viewBox="0 0 20 21" fill="none" xmlns="http://www.w3.org/2000/svg">
<g clip-path="url(#clip0_170_446)">
<path d="M9.99976 0.931946C4.48283 0.931946 -0.000244141 5.41502 -0.000244141 10.9319C-0.000244141 16.4489 4.48283 20.9319 9.99976 20.9319C10.5856 20.9319 11.1562 20.8707 11.7146 20.7737L10.8337 19.8929C10.559 19.9182 10.2813 19.9319 9.99976 19.9319C7.78027 19.9319 5.75523 19.1274 4.18726 17.7991L4.28687 17.7679L5.08765 17.5472L5.90015 17.3597L6.71655 17.2054L6.94702 17.1487L7.16968 17.055L7.37085 16.928L7.55054 16.7679L7.70093 16.5843L7.82202 16.3753L7.90991 16.1526L7.95679 15.9183L7.97046 15.68L7.94312 15.4417L7.87866 15.2112L7.77905 14.9944L7.64819 14.7972L7.48999 14.5765L7.35327 14.348L7.07397 13.7874L6.82593 13.2112L6.60913 12.6253L6.42358 12.0257L6.27319 11.4183L6.15405 10.803L6.06812 10.1839L6.01538 9.56085L5.99976 8.9339L6.01929 8.54132L6.07788 8.15265L6.17163 7.77179L6.30444 7.40265L6.47241 7.04718L6.67358 6.71124L6.90796 6.39484L7.16968 6.10382L7.46265 5.84015L7.7771 5.60577L8.11499 5.40656L8.47046 5.23663L8.8396 5.10577L9.21851 5.01007L9.60718 4.95148L9.99976 4.93195L10.3923 4.95148L10.781 5.01007L11.1599 5.10577L11.5291 5.23663L11.8865 5.40656L12.2224 5.60577L12.5369 5.84015L12.8298 6.10382L13.0916 6.39484L13.3259 6.71124L13.5271 7.04718L13.6951 7.40265L13.8279 7.77179L13.9236 8.15265L13.9822 8.54132L13.9998 8.9339L13.9841 9.56085L13.9314 10.1839L13.8455 10.803L13.7283 11.4183L13.5759 12.0257L13.3904 12.6253L13.1736 13.2112L12.9255 13.7874L12.6462 14.348L12.5095 14.5765L12.3513 14.7972L12.2205 14.9944L12.1208 15.2112L12.0564 15.4417L12.0291 15.68L12.0427 15.9183L12.0916 16.1526L12.1775 16.3753L12.2986 16.5843L12.4509 16.7679L12.6287 16.928L12.8298 17.055L13.0525 17.1487L13.283 17.2054L14.0994 17.3597L14.3806 17.4241L15.2107 16.5941L15.156 16.5784L14.3064 16.3812L13.447 16.2191L13.322 16.1819L13.2126 16.1136L13.1248 16.0198L13.0623 15.9066L13.033 15.7796L13.0349 15.6526L13.0701 15.5276L13.1365 15.4163L13.3474 15.1253L13.5291 14.8167L13.8337 14.2073L14.1033 13.5843L14.3396 12.9456L14.5408 12.2933L14.7048 11.6351L14.8337 10.9671L14.9255 10.2913L14.9822 9.61359L14.9998 8.9339L14.9822 8.49835L14.9236 8.06476L14.8298 7.63898L14.697 7.22296L14.531 6.82062L14.3298 6.43195L14.0974 6.06476L13.8298 5.71906L13.5369 5.39679L13.2126 5.10382L12.8689 4.8382L12.4998 4.60187L12.113 4.4007L11.7107 4.23468L11.2947 4.10187L10.8669 4.00812L10.4353 3.95148L9.99976 3.93195L9.56421 3.95148L9.13257 4.00812L8.70483 4.10187L8.28882 4.23468L7.88647 4.4007L7.49976 4.60187L7.13257 4.8382L6.78687 5.10382L6.46265 5.39679L6.16968 5.71906L5.90405 6.06476L5.66968 6.43195L5.46851 6.82062L5.30249 7.22296L5.16968 7.63898L5.07593 8.06476L5.01929 8.49835L4.99976 8.9339L5.01733 9.61359L5.07397 10.2913L5.16577 10.9671L5.29468 11.6351L5.45874 12.2933L5.65991 12.9456L5.89819 13.5843L6.16577 14.2073L6.47046 14.8167L6.6521 15.1253L6.86304 15.4163L6.92944 15.5276L6.9646 15.6526L6.96851 15.7796L6.93726 15.9066L6.87476 16.0198L6.78687 16.1136L6.67749 16.1819L6.55249 16.2191L5.69507 16.3812L4.84351 16.5784L4.00171 16.8109L3.37476 17.012C1.90433 15.4105 0.999756 13.2813 0.999756 10.9319C0.999756 5.95546 5.02327 1.93195 9.99976 1.93195C14.9762 1.93195 18.9998 5.95546 18.9998 10.9319C18.9998 11.7021 18.8931 12.4446 18.7107 13.1566C18.9341 13.0182 19.1901 12.9354 19.4568 12.928C19.5718 12.9249 19.6799 12.9498 19.7888 12.973C19.9259 12.3137 19.9998 11.6315 19.9998 10.9319C19.9998 5.41502 15.5167 0.931946 9.99976 0.931946ZM19.4841 13.928C19.3544 13.9316 19.2311 13.9856 19.1404 14.0784L13.4939 19.7249L10.8474 17.0784C10.3762 16.5876 9.64957 17.3142 10.1404 17.7855L13.1404 20.7855C13.3356 20.9806 13.6521 20.9806 13.8474 20.7855L19.8474 14.7855C20.1727 14.4675 19.9389 13.9156 19.4841 13.928Z" fill="#DC8400"/>
</g>
<defs>
<clipPath id="clip0_170_446">
<rect width="20" height="20" fill="white" transform="translate(-0.000244141 0.931946)"/>
</clipPath>
</defs>
</svg>
