<svg width="16" height="16" viewBox="0 0 16 16" fill="none" xmlns="http://www.w3.org/2000/svg">
<path d="M8.09644 4.1353C8.51066 4.1353 8.84644 4.47109 8.84644 4.8853V8.6353C8.84644 9.04952 8.51066 9.3853 8.09644 9.3853C7.68221 9.3853 7.34644 9.04952 7.34644 8.6353V4.8853C7.34644 4.47109 7.68221 4.1353 8.09644 4.1353Z" fill="#FF008A"/>
<path d="M8.09644 11.6353C8.51066 11.6353 8.84644 11.2995 8.84644 10.8853C8.84644 10.4711 8.51066 10.1353 8.09644 10.1353C7.68221 10.1353 7.34644 10.4711 7.34644 10.8853C7.34644 11.2995 7.68221 11.6353 8.09644 11.6353Z" fill="#FF008A"/>
<path fill-rule="evenodd" clip-rule="evenodd" d="M0.596436 7.88531C0.596436 3.74318 3.9543 0.385315 8.09644 0.385315C12.2385 0.385315 15.5964 3.74318 15.5964 7.88531C15.5964 12.0274 12.2385 15.3853 8.09644 15.3853C3.9543 15.3853 0.596436 12.0274 0.596436 7.88531ZM8.09644 1.88531C4.78273 1.88531 2.09644 4.5716 2.09644 7.88531C2.09644 11.199 4.78273 13.8853 8.09644 13.8853C11.4102 13.8853 14.0964 11.199 14.0964 7.88531C14.0964 4.5716 11.4102 1.88531 8.09644 1.88531Z" fill="#FF008A"/>
</svg>
