<svg width="16" height="15" viewBox="0 0 16 15" fill="none" xmlns="http://www.w3.org/2000/svg">
<g clip-path="url(#clip0_151_540)">
<path d="M8.09669 0.000396729C6.85419 0.000396729 5.84669 1.0079 5.84669 2.2504C5.84669 3.4929 6.85419 4.5004 8.09669 4.5004C9.33919 4.5004 10.3467 3.4929 10.3467 2.2504C10.3467 1.0079 9.33919 0.000396729 8.09669 0.000396729ZM8.09669 1.5004C8.51119 1.5004 8.84669 1.8364 8.84669 2.2504C8.84669 2.6644 8.51069 3.0004 8.09669 3.0004C7.68219 3.0004 7.34669 2.6644 7.34669 2.2504C7.34669 1.8364 7.68269 1.5004 8.09669 1.5004ZM9.59669 7.5004C9.59669 8.3289 8.92519 9.0004 8.09669 9.0004C7.26819 9.0004 6.59669 8.3289 6.59669 7.5004C6.59669 6.6719 7.26819 6.0004 8.09669 6.0004C8.92519 6.0004 9.59669 6.6719 9.59669 7.5004ZM8.09669 10.5004C6.85419 10.5004 5.84669 11.5079 5.84669 12.7504C5.84669 13.9929 6.85419 15.0004 8.09669 15.0004C9.33919 15.0004 10.3467 13.9929 10.3467 12.7504C10.3467 11.5079 9.33919 10.5004 8.09669 10.5004ZM8.09669 12.0004C8.51119 12.0004 8.84669 12.3364 8.84669 12.7504C8.84669 13.1644 8.51069 13.5004 8.09669 13.5004C7.68219 13.5004 7.34669 13.1644 7.34669 12.7504C7.34669 12.3364 7.68269 12.0004 8.09669 12.0004ZM14.5917 3.7504C13.9702 2.6744 12.5942 2.3054 11.5182 2.9269C10.4422 3.5484 10.0732 4.9244 10.6947 6.0004C11.3162 7.0764 12.6922 7.4454 13.7682 6.8239C14.8442 6.2024 15.2132 4.8264 14.5917 3.7504ZM13.2927 4.5004C13.4997 4.8589 13.3767 5.3179 13.0182 5.5249C12.6597 5.7319 12.2007 5.6089 11.9937 5.2504C11.7867 4.8919 11.9097 4.4329 12.2682 4.2259C12.6267 4.0189 13.0852 4.1419 13.2927 4.5004ZM5.49869 9.0004C4.87719 7.9244 3.50119 7.5554 2.42519 8.1769C1.34919 8.7984 0.980195 10.1744 1.60169 11.2504C2.22319 12.3264 3.59919 12.6954 4.67519 12.0739C5.75119 11.4524 6.12019 10.0764 5.49869 9.0004ZM4.19969 9.7504C4.40669 10.1094 4.28369 10.5679 3.92519 10.7749C3.56669 10.9819 3.10769 10.8589 2.90069 10.5004C2.69369 10.1419 2.81669 9.6829 3.17519 9.4759C3.53369 9.2689 3.99269 9.3919 4.19969 9.7504ZM1.60119 3.7504C0.979695 4.8264 1.34869 6.2024 2.42469 6.8239C3.50069 7.4454 4.87669 7.0764 5.49819 6.0004C6.11969 4.9244 5.75069 3.5484 4.67469 2.9269C3.59869 2.3054 2.22269 2.6744 1.60119 3.7504ZM2.90069 4.5004C3.10769 4.1419 3.56619 4.0189 3.92519 4.2259C4.28419 4.4329 4.40669 4.8914 4.19969 5.2504C3.99269 5.6094 3.53419 5.7319 3.17519 5.5249C2.81619 5.3179 2.69369 4.8594 2.90069 4.5004ZM10.6947 9.0004C10.0732 10.0764 10.4422 11.4524 11.5182 12.0739C12.5942 12.6954 13.9702 12.3264 14.5917 11.2504C15.2132 10.1744 14.8442 8.7984 13.7682 8.1769C12.6922 7.5554 11.3162 7.9244 10.6947 9.0004ZM11.9937 9.7504C12.2007 9.3914 12.6592 9.2689 13.0182 9.4759C13.3772 9.6829 13.4997 10.1414 13.2927 10.5004C13.0857 10.8594 12.6272 10.9819 12.2682 10.7749C11.9097 10.5679 11.7867 10.1094 11.9937 9.7504Z" fill="#06EA6F"/>
</g>
<defs>
<clipPath id="clip0_151_540">
<rect width="15" height="15" fill="white" transform="translate(0.596436 0.000396729)"/>
</clipPath>
</defs>
</svg>
