<svg width="16" height="16" viewBox="0 0 16 16" fill="none" xmlns="http://www.w3.org/2000/svg">
<path d="M8.09644 0.0429688C3.95581 0.0429688 0.596436 3.40234 0.596436 7.54297C0.596436 11.6867 3.95581 15.043 8.09644 15.043C12.2402 15.043 15.5964 11.6867 15.5964 7.54297C15.5964 3.39922 12.2402 0.0429688 8.09644 0.0429688ZM8.09644 1.91797C11.2027 1.91797 13.7214 4.43672 13.7214 7.54297C13.7214 10.6492 11.2027 13.168 8.09644 13.168C4.99019 13.168 2.47144 10.6492 2.47144 7.54297C2.47144 4.43672 4.99019 1.91797 8.09644 1.91797ZM10.9496 3.92422C10.7464 3.92422 10.5589 3.99922 10.4246 4.18047C8.79956 6.37109 8.26831 7.19609 7.11206 9.48672C6.84956 9.13984 5.06206 7.22422 4.17769 6.54609C3.73394 6.20547 2.88706 7.39609 3.19019 7.70547C4.55269 9.10859 6.97456 12.2305 7.36831 12.1992C8.03706 12.1461 9.71519 7.92422 12.0183 4.89609C12.2683 4.57109 11.5496 3.91797 10.9496 3.92422Z" fill="#06EADC"/>
</svg>
