<svg width="21" height="21" viewBox="0 0 21 21" fill="none" xmlns="http://www.w3.org/2000/svg">
<g clip-path="url(#clip0_170_442)">
<path d="M19.7361 0.278489C19.5192 0.119426 19.2592 0.0372388 18.9967 0.0372388C18.8708 0.0372388 18.7439 0.0563013 18.6211 0.0950513L13.0701 1.84786L7.82981 0.100989C7.70169 0.0581763 7.56825 0.0369263 7.4345 0.0369263C7.28825 0.0369263 7.14169 0.0625513 7.00263 0.114114L1.06513 2.30161C0.573877 2.48255 0.247314 2.95068 0.247314 3.47443V18.7869C0.247314 19.1851 0.437002 19.5597 0.758564 19.7954C0.975439 19.9541 1.23481 20.0369 1.49731 20.0369C1.62356 20.0369 1.75075 20.0176 1.87356 19.9788L7.43481 18.2226L12.9961 19.9788C13.1186 20.0176 13.2451 20.0369 13.372 20.0369C13.5058 20.0369 13.6392 20.0157 13.7676 19.9729L19.3926 18.0979C19.9029 17.9276 20.2473 17.4501 20.2473 16.9119V1.28693C20.2473 0.888801 20.0576 0.514114 19.7361 0.278489ZM18.8086 0.691301C18.8695 0.671926 18.9329 0.662239 18.997 0.662239C19.1298 0.662239 19.2611 0.705051 19.367 0.782864C19.5267 0.900051 19.6223 1.08849 19.6223 1.28693V9.1263C19.5492 9.11505 19.4733 9.10036 19.3936 9.08505C19.0289 9.01224 18.8001 8.92224 18.5248 8.60193C18.1998 8.23068 18.3889 7.63005 18.0308 7.3163C17.8926 7.19818 17.7601 7.1588 17.6264 7.1588C17.3689 7.15849 17.107 7.30505 16.7904 7.3163C16.2698 7.33943 15.9117 7.55255 15.4798 7.55255C15.3464 7.55255 15.2058 7.53255 15.0511 7.47974C14.6317 7.33599 14.4711 7.00755 14.0579 6.83568C13.9248 6.77943 13.8033 6.74474 13.6851 6.7188V4.7838C14.037 4.90911 14.3508 5.02536 14.8023 5.0688C15.0495 5.09349 15.2492 5.18755 15.4492 5.18755C15.5617 5.18755 15.6745 5.15755 15.7954 5.0688C16.1701 4.78943 16.492 4.28068 16.2929 3.78505C16.1636 3.45849 15.852 3.5813 15.6695 3.30224C15.4739 2.99474 15.5667 2.7138 15.4242 2.34036C15.5129 2.06661 15.6642 1.87411 15.7479 1.65755L18.8086 0.691301ZM14.8401 2.56318C14.8748 2.65474 14.8858 2.74661 14.8992 2.86286C14.9229 3.06599 14.9558 3.34474 15.1417 3.63755C15.3301 3.92536 15.5779 4.03286 15.7267 4.09005C15.7314 4.25536 15.5704 4.45349 15.4304 4.56099C15.3926 4.55568 15.3245 4.5388 15.2726 4.52568C15.162 4.49755 15.0245 4.46318 14.8636 4.44693C14.5029 4.41224 14.2511 4.32255 13.9326 4.20849C13.8558 4.18099 13.7701 4.15161 13.6845 4.12255V2.30911L14.9226 1.91818C14.8901 1.98974 14.8567 2.06255 14.8292 2.14755C14.7854 2.28318 14.7892 2.43005 14.8401 2.56318ZM13.0598 6.6663C12.8901 6.66974 12.7158 6.6788 12.5195 6.6788C12.4558 6.6788 12.3901 6.67755 12.3214 6.67474C12.2845 6.67318 12.2486 6.67255 12.2129 6.67255C11.867 6.67255 11.6023 6.73911 11.3064 6.73911C11.1604 6.73911 11.0073 6.72286 10.8323 6.67474C10.4292 6.56286 10.0945 6.61599 9.83888 6.19599C9.54231 5.69755 9.55731 5.09661 9.83888 4.58599C10.1339 4.05786 10.5786 4.17786 11.0811 4.10505C11.1736 4.09255 11.2608 4.08661 11.3445 4.08661C11.9686 4.08661 12.3801 4.40755 13.0595 4.58411L13.0598 6.6663ZM10.0733 13.8547C9.90763 14.2579 9.60169 14.3419 9.25888 14.3419C9.20013 14.3419 9.14044 14.3394 9.08013 14.3357C8.712 14.3141 8.54638 14.0522 8.21138 13.8547C7.89231 13.6666 7.672 13.4091 7.43513 13.2063V9.15005C7.66856 9.46536 7.76013 9.78661 8.08544 9.99724C8.21169 10.0791 8.332 10.1079 8.4495 10.1079C8.73106 10.1079 8.99763 9.94255 9.29513 9.94255C9.38544 9.94255 9.47888 9.95786 9.57606 9.99755C10.0751 10.2057 10.4995 10.3344 10.6917 10.9657C10.8176 11.3719 10.8211 11.6832 10.6917 12.0866C10.5642 12.4944 10.1908 12.4729 10.0733 12.8894C9.96856 13.2451 10.2076 13.5197 10.0733 13.8547ZM0.872314 6.02318C1.14575 6.02099 1.41044 6.00255 1.7595 5.98474C2.19544 5.96068 2.50794 5.72974 2.86544 5.72974C2.98544 5.72974 3.11044 5.75568 3.247 5.82411C3.66481 6.02786 3.74263 6.47193 4.11731 6.78568C4.68294 7.26005 5.132 7.18943 5.73075 7.59099C6.177 7.89068 6.48638 8.14036 6.80981 8.46161V12.9022C6.78013 12.8982 6.75356 12.8901 6.72231 12.8888C6.60606 12.8854 6.50044 12.8716 6.402 12.8716C6.25044 12.8716 6.11419 12.9035 5.97794 13.0516C5.74263 13.3051 5.94513 13.7347 5.73106 14.0135C5.57544 14.2204 5.40075 14.2847 5.21044 14.2847C5.02544 14.2847 4.82575 14.2244 4.61356 14.1744C4.18731 14.0772 4.04638 13.6354 3.622 13.5322C3.46294 13.4941 3.33575 13.4635 3.20669 13.4635C3.10388 13.4635 3.00013 13.4829 2.87731 13.5322C2.34981 13.7469 2.262 14.3413 2.00669 14.9791C1.79794 15.5072 2.00513 16.0694 1.63544 16.4216C1.45575 16.5932 1.28356 16.646 1.09731 16.646C1.02513 16.646 0.950127 16.6379 0.872627 16.626L0.872314 6.02318ZM1.28138 2.88818L6.80981 0.851301V7.61505C6.59044 7.4313 6.35856 7.25974 6.07919 7.07224C5.74106 6.84536 5.44825 6.74224 5.19013 6.65099C4.92888 6.55911 4.74044 6.49255 4.51888 6.30661C4.42513 6.22818 4.35138 6.11693 4.26544 5.98755C4.107 5.7488 3.90981 5.45161 3.52075 5.26193C3.31419 5.15849 3.09169 5.10443 2.86513 5.10443C2.58325 5.10443 2.34856 5.18474 2.142 5.25568C1.9895 5.30786 1.85763 5.35318 1.72481 5.36036L1.47294 5.37443C1.24356 5.38693 1.05919 5.39693 0.872314 5.39818V3.47443C0.872314 3.2138 1.03638 2.97818 1.28138 2.88818ZM1.68575 19.3829C1.6245 19.4022 1.56106 19.4119 1.49731 19.4119C1.36356 19.4119 1.23575 19.3701 1.12794 19.291C0.967939 19.1738 0.872314 18.9854 0.872314 18.7869V17.2544C0.945752 17.2632 1.01981 17.2716 1.097 17.2716C1.46919 17.2716 1.78669 17.1416 2.06669 16.8744C2.45919 16.501 2.49075 16.0254 2.5145 15.6785C2.52606 15.5032 2.53731 15.3379 2.58794 15.2097C2.64419 15.0694 2.69356 14.9288 2.74075 14.7932C2.89138 14.3635 2.972 14.1694 3.11263 14.1119C3.16825 14.0894 3.19294 14.0894 3.20638 14.0894C3.26263 14.0894 3.36138 14.1132 3.47544 14.1407C3.52138 14.1519 3.59919 14.2263 3.68138 14.3051C3.8545 14.4704 4.09138 14.6972 4.47419 14.7844L4.58763 14.8119C4.77419 14.8579 4.98544 14.9101 5.20981 14.9101C5.62075 14.9101 5.97356 14.7301 6.23013 14.3894C6.45325 14.0985 6.46325 13.7722 6.47044 13.5563C6.47106 13.5394 6.47169 13.5197 6.47231 13.4997C6.48981 13.5007 6.50731 13.5022 6.52544 13.5035C6.58263 13.5079 6.64169 13.5116 6.70356 13.5135C6.74044 13.5151 6.77513 13.5219 6.80981 13.5347V17.7644L1.68575 19.3829ZM7.62325 17.6266L7.43481 17.5672V14.0526C7.56669 14.1691 7.71419 14.2872 7.89419 14.3935C7.96919 14.4379 8.04075 14.4935 8.11606 14.5529C8.32106 14.7138 8.602 14.9338 9.04356 14.9597C9.11513 14.9644 9.18763 14.9669 9.25888 14.9669C9.94419 14.9669 10.4126 14.6729 10.6514 14.0926C10.7914 13.7435 10.7336 13.4435 10.6951 13.2451C10.6811 13.1732 10.6654 13.0913 10.6733 13.0651L10.6786 13.0488C10.6879 13.0363 10.7361 12.9988 10.7708 12.971C10.9195 12.8541 11.1679 12.6582 11.2886 12.2729C11.4529 11.7588 11.4536 11.3113 11.2889 10.7801C11.0254 9.91599 10.4154 9.66599 9.92513 9.46505L9.81669 9.42036C9.64763 9.3513 9.47356 9.31724 9.29513 9.31724C9.05356 9.31724 8.84731 9.37849 8.68231 9.42786C8.59138 9.45505 8.49731 9.48286 8.4495 9.48286C8.44325 9.48255 8.43763 9.48068 8.42513 9.47286C8.33513 9.41443 8.27638 9.31911 8.172 9.14161C8.08481 8.99286 7.97606 8.80849 7.81388 8.6238C7.67825 8.46974 7.5545 8.33411 7.43481 8.20849V0.661926C7.50231 0.661926 7.56856 0.672551 7.63231 0.694114L12.8723 2.44068L13.0598 2.50318V3.92974C12.9023 3.87974 12.7539 3.82443 12.6029 3.76411C12.2333 3.61536 11.8508 3.46161 11.3448 3.46161C11.2311 3.46161 11.1139 3.46943 10.9967 3.48568C10.9051 3.4988 10.8133 3.50474 10.7161 3.51036C10.3073 3.53505 9.68981 3.57255 9.29388 4.28099C8.89544 5.0038 8.89919 5.83786 9.30231 6.51568C9.64481 7.07911 10.1242 7.1688 10.4417 7.22849C10.5208 7.24318 10.5954 7.25724 10.6658 7.27661C10.8786 7.33536 11.0883 7.3638 11.307 7.3638C11.4848 7.3638 11.6426 7.34568 11.7951 7.32849C11.9361 7.31255 12.0692 7.29724 12.2136 7.29724C12.2404 7.29724 12.2683 7.29786 12.2964 7.2988C12.3742 7.30224 12.4483 7.30349 12.5201 7.30349C12.6501 7.30349 12.7714 7.29911 12.8879 7.29536C12.947 7.29318 13.0033 7.29224 13.0604 7.29099V19.3432L7.62325 17.6266ZM19.1948 17.5047L13.6848 19.3413V7.36474C13.7273 7.37849 13.7695 7.39255 13.8154 7.41161C13.9261 7.45755 14.0117 7.52974 14.1301 7.62974C14.3033 7.77568 14.5186 7.95755 14.8483 8.07036C15.0598 8.14224 15.2658 8.17724 15.4798 8.17724C15.7783 8.17724 16.0361 8.10786 16.2636 8.04661C16.4501 7.9963 16.6261 7.94911 16.8183 7.94036C17.0473 7.93224 17.2451 7.87724 17.4042 7.83318C17.482 7.81193 17.5695 7.78755 17.6154 7.7838C17.6398 7.82818 17.6623 7.9688 17.6773 8.06286C17.7208 8.3313 17.7798 8.69943 18.0545 9.01349C18.4351 9.4563 18.8029 9.60411 19.2711 9.69755L19.3036 9.70411C19.407 9.72349 19.5136 9.74099 19.6226 9.75411V16.9119C19.6223 17.1813 19.4504 17.4197 19.1948 17.5047Z" fill="#33C074"/>
<path d="M17.5304 12.3251C17.3185 12.2601 17.1185 12.1988 16.9023 12.1988C16.6985 12.1988 16.5145 12.2541 16.3385 12.3685C16.141 12.4988 16.0841 12.6597 16.071 12.7713C16.0363 13.0729 16.2598 13.3097 16.4963 13.5604C16.6545 13.7279 16.8932 13.981 16.847 14.1013C16.817 14.1813 16.7263 14.2251 16.541 14.2991C16.3107 14.3916 15.962 14.5307 15.8866 14.9463C15.8441 15.1769 15.8966 15.3888 16.0382 15.5588C16.2373 15.7972 16.5979 15.9285 17.0548 15.9285C17.5204 15.9285 17.9782 15.7941 18.2823 15.5672C18.7988 15.171 18.997 14.5922 18.871 13.8476C18.7454 13.0879 18.2885 12.5635 17.5304 12.3251ZM17.9051 15.0691C17.7145 15.2116 17.3804 15.3038 17.0548 15.3038C16.7676 15.3038 16.5788 15.2313 16.5182 15.1588C16.5076 15.146 16.4891 15.1241 16.501 15.0588C16.5126 14.9966 16.5607 14.9647 16.7729 14.8801C16.9963 14.7907 17.3023 14.6682 17.4313 14.3232C17.6166 13.8379 17.2316 13.4301 16.9504 13.1319C16.876 13.0532 16.7723 12.9432 16.7207 12.8685C16.8848 12.7819 17.072 12.8385 17.3626 12.9279C17.8757 13.0894 18.1673 13.4235 18.2545 13.951C18.3426 14.4713 18.2338 14.8169 17.9051 15.0691Z" fill="#33C074"/>
</g>
<defs>
<clipPath id="clip0_170_442">
<rect width="20" height="20" fill="white" transform="translate(0.247314 0.0369263)"/>
</clipPath>
</defs>
</svg>
