<svg width="16" height="16" viewBox="0 0 16 16" fill="none" xmlns="http://www.w3.org/2000/svg">
<path fill-rule="evenodd" clip-rule="evenodd" d="M4.5806 3.61499C5.72087 2.75351 7.1377 2.34059 8.56226 2.45457C9.98681 2.56856 11.32 3.20153 12.3087 4.23336C13.2975 5.2652 13.8731 6.62411 13.9263 8.05222C13.9795 9.48034 13.5065 10.8783 12.5973 11.9808L4.5806 3.61499ZM3.40727 4.79832C2.58728 5.90471 2.18515 7.26552 2.27208 8.63991C2.359 10.0143 2.92937 11.3136 3.88222 12.3079C4.83507 13.3021 6.10895 13.9272 7.47839 14.0725C8.84784 14.2178 10.2245 13.8739 11.3648 13.1017L3.40727 4.79999V4.79832ZM8.09644 0.769989C6.10731 0.769989 4.19966 1.56017 2.79313 2.96669C1.38661 4.37321 0.596436 6.28087 0.596436 8.26999C0.596436 10.2591 1.38661 12.1668 2.79313 13.5733C4.19966 14.9798 6.10731 15.77 8.09644 15.77C10.0856 15.77 11.9932 14.9798 13.3997 13.5733C14.8063 12.1668 15.5964 10.2591 15.5964 8.26999C15.5964 6.28087 14.8063 4.37321 13.3997 2.96669C11.9932 1.56017 10.0856 0.769989 8.09644 0.769989Z" fill="#FA00FF"/>
</svg>
