<svg width="20" height="21" viewBox="0 0 20 21" fill="none" xmlns="http://www.w3.org/2000/svg">
<g clip-path="url(#clip0_170_438)">
<path d="M12.8657 9.48711L14.5282 7.92833C15.5139 7.00407 16.0732 5.71344 16.0732 4.36223V2.11399C16.0735 1.5861 15.8571 1.10157 15.5106 0.756411C15.1654 0.409809 14.6809 0.193481 14.153 0.193833H5.84688C5.31899 0.193481 4.83414 0.409809 4.48895 0.756372C4.14242 1.10157 3.92606 1.58606 3.92676 2.11395V4.36215C3.92676 5.71336 4.48594 7.00403 5.47176 7.92825L7.13387 9.48637C7.22535 9.57251 7.27754 9.69227 7.27754 9.81809V10.5694C7.27754 10.6952 7.22535 10.8147 7.13422 10.9005L5.4718 12.4593C4.48598 13.3832 3.9268 14.6742 3.9268 16.0254V18.2736C3.9261 18.8015 4.1425 19.286 4.48899 19.6312C4.83422 19.9777 5.31903 20.1941 5.84692 20.1938H14.153C14.6809 20.1941 15.1654 19.9777 15.5106 19.6312C15.8571 19.286 16.0735 18.8015 16.0732 18.2736V16.0255C16.0732 14.6743 15.514 13.3833 14.5282 12.4594L12.8661 10.9009C12.7742 10.8148 12.7224 10.6953 12.7224 10.5695V9.81817C12.7224 9.69235 12.7742 9.57258 12.8657 9.48711ZM14.6072 18.2737C14.6069 18.4015 14.5575 18.5102 14.474 18.5947C14.3895 18.6781 14.2809 18.7276 14.153 18.7279H5.84688C5.71903 18.7275 5.61 18.6781 5.52555 18.5947C5.44211 18.5102 5.39301 18.4015 5.39266 18.2737V16.0255C5.39266 15.0797 5.7843 14.1756 6.47434 13.529L8.13645 11.9702C8.52371 11.6075 8.74344 11.1001 8.74344 10.5695V9.81817C8.74344 9.28723 8.52371 8.77989 8.13613 8.41715L6.47434 6.85872C5.78426 6.21208 5.39266 5.30832 5.39266 4.36223V2.11399C5.39301 1.98614 5.44211 1.87747 5.52555 1.79266C5.61 1.70958 5.71903 1.66008 5.84688 1.65977H14.153C14.2808 1.66008 14.3895 1.70954 14.474 1.79266C14.5574 1.87747 14.6069 1.9861 14.6072 2.11399V4.36219C14.6072 5.30829 14.2156 6.21204 13.5255 6.85868L11.8634 8.41711C11.4761 8.77985 11.2564 9.28719 11.2564 9.81813V10.5695C11.2564 11.1001 11.4762 11.6074 11.8638 11.9708L13.5255 13.5286C14.2156 14.1756 14.6072 15.0797 14.6072 16.0254V18.2737Z" fill="#BDCD00"/>
<path d="M9.26802 14.9966L6.24731 18.0173H13.7523L10.7316 14.9966C10.3275 14.5928 9.67247 14.5928 9.26802 14.9966Z" fill="#BDCD00"/>
</g>
<defs>
<clipPath id="clip0_170_438">
<rect width="20" height="20" fill="white" transform="translate(0 0.193848)"/>
</clipPath>
</defs>
</svg>
