<svg width="120" height="51" viewBox="0 0 120 51" fill="none" xmlns="http://www.w3.org/2000/svg">
<path d="M47.1639 39.2595C47.0782 39.2746 46.9774 39.2847 46.8616 39.2898C46.7508 39.2948 46.6449 39.2973 46.5442 39.2973C46.3074 39.2973 46.0832 39.257 45.8717 39.1763C45.6651 39.0958 45.4838 38.9698 45.3276 38.7985C45.1765 38.6273 45.0556 38.4107 44.9649 38.1487C44.8793 37.8817 44.8364 37.5668 44.8364 37.2041C44.8364 36.8616 44.8793 36.5569 44.9649 36.2898C45.0556 36.0178 45.1816 35.7886 45.3427 35.6022C45.509 35.4158 45.7054 35.2748 45.9322 35.1791C46.1588 35.0783 46.4107 35.0279 46.6878 35.0279C46.7532 35.0279 46.8338 35.0305 46.9296 35.0355C47.0304 35.0405 47.1084 35.048 47.1639 35.0581V34.4083H47.7834V35.0808C47.8741 35.0556 47.9799 35.0405 48.1008 35.0355C48.2268 35.0305 48.33 35.0279 48.4106 35.0279C48.6524 35.0279 48.8766 35.0732 49.0832 35.1639C49.2897 35.2496 49.4685 35.3805 49.6197 35.5569C49.7758 35.7281 49.8967 35.9472 49.9824 36.2143C50.068 36.4762 50.1109 36.781 50.1109 37.1286C50.1109 37.4863 50.0605 37.8011 49.9597 38.0731C49.8639 38.3452 49.733 38.5719 49.5667 38.7532C49.4006 38.9346 49.2066 39.0706 48.9849 39.1612C48.7633 39.2519 48.5265 39.2973 48.2746 39.2973C48.2192 39.2973 48.1361 39.2948 48.0252 39.2898C47.9195 39.2797 47.8389 39.2646 47.7834 39.2444V40.0001H47.1639V39.2595ZM48.3199 35.5569C48.2494 35.5569 48.1588 35.5593 48.0479 35.5644C47.9371 35.5694 47.8464 35.5845 47.7759 35.6097V38.7456C47.8263 38.7557 47.8917 38.7633 47.9724 38.7683C48.058 38.7683 48.1411 38.7683 48.2217 38.7683C48.393 38.7683 48.5517 38.7356 48.6978 38.6701C48.8489 38.6046 48.9799 38.5039 49.0907 38.3678C49.2066 38.2318 49.2972 38.0605 49.3627 37.854C49.4282 37.6475 49.461 37.4057 49.461 37.1286C49.461 36.8968 49.4333 36.6853 49.3778 36.4938C49.3274 36.2974 49.2519 36.1287 49.1512 35.9876C49.0554 35.8465 48.9371 35.7407 48.796 35.6702C48.655 35.5946 48.4963 35.5569 48.3199 35.5569ZM46.6576 38.7683C46.6828 38.7683 46.7155 38.7683 46.7558 38.7683C46.8011 38.7683 46.849 38.7683 46.8994 38.7683C46.9497 38.7633 46.9976 38.7583 47.0429 38.7532C47.0933 38.7432 47.1361 38.7331 47.1714 38.723V35.5871C47.1109 35.577 47.0354 35.5694 46.9447 35.5644C46.859 35.5593 46.781 35.5569 46.7104 35.5569C46.5392 35.5569 46.378 35.5921 46.2268 35.6627C46.0808 35.7281 45.9523 35.8314 45.8415 35.9724C45.7306 36.1085 45.6425 36.2797 45.577 36.4863C45.5165 36.6928 45.4863 36.9321 45.4863 37.2041C45.4863 37.446 45.514 37.6651 45.5695 37.8616C45.6248 38.053 45.7029 38.2167 45.8037 38.3527C45.9094 38.4888 46.0329 38.592 46.1739 38.6626C46.3201 38.7331 46.4812 38.7683 46.6576 38.7683ZM50.9441 36.3503C51.1355 36.2344 51.3572 36.1488 51.609 36.0934C51.866 36.0379 52.133 36.0103 52.41 36.0103C52.672 36.0103 52.881 36.0455 53.0372 36.116C53.1984 36.1865 53.3193 36.2797 53.3999 36.3956C53.4856 36.5065 53.541 36.6299 53.5661 36.7659C53.5964 36.9019 53.6115 37.0379 53.6115 37.1739C53.6115 37.4762 53.604 37.7709 53.5888 38.058C53.5737 38.3452 53.5661 38.6172 53.5661 38.8741C53.5661 39.0605 53.5737 39.2368 53.5888 39.4031C53.604 39.5693 53.6316 39.7229 53.6719 39.864H53.2261L53.0675 39.3351H53.0296C52.9843 39.4056 52.9264 39.4761 52.8558 39.5466C52.7904 39.6122 52.7098 39.6726 52.6141 39.728C52.5183 39.7783 52.4075 39.8212 52.2816 39.8565C52.1556 39.8917 52.012 39.9094 51.8509 39.9094C51.6897 39.9094 51.5385 39.8842 51.3975 39.8338C51.2614 39.7834 51.1431 39.7129 51.0423 39.6222C50.9416 39.5265 50.861 39.4132 50.8005 39.2821C50.7451 39.1512 50.7174 39.0025 50.7174 38.8363C50.7174 38.6147 50.7628 38.4308 50.8534 38.2847C50.9441 38.1336 51.0701 38.0152 51.2312 37.9295C51.3975 37.8389 51.5939 37.7759 51.8207 37.7406C52.0524 37.7003 52.3068 37.6802 52.5838 37.6802C52.6544 37.6802 52.7223 37.6802 52.7878 37.6802C52.8584 37.6802 52.9289 37.6852 52.9994 37.6953C53.0145 37.5442 53.0221 37.4081 53.0221 37.2873C53.0221 37.0102 52.9667 36.8162 52.8558 36.7055C52.7451 36.5946 52.5435 36.5392 52.2513 36.5392C52.1657 36.5392 52.0725 36.5468 51.9717 36.5619C51.8761 36.572 51.7753 36.5896 51.6695 36.6148C51.5687 36.6349 51.4705 36.6626 51.3748 36.6979C51.2842 36.7281 51.2035 36.7634 51.133 36.8037L50.9441 36.3503ZM52.0171 39.3804C52.1582 39.3804 52.2841 39.3628 52.3949 39.3275C52.5058 39.2872 52.6015 39.2394 52.682 39.1839C52.7627 39.1235 52.8282 39.058 52.8785 38.9874C52.934 38.917 52.9743 38.8489 52.9994 38.7834V38.1563C52.9289 38.1512 52.8558 38.1487 52.7803 38.1487C52.7098 38.1436 52.6392 38.1412 52.5687 38.1412C52.4126 38.1412 52.2589 38.1512 52.1078 38.1714C51.9617 38.1865 51.8307 38.2192 51.7148 38.2696C51.604 38.315 51.5134 38.3805 51.4428 38.466C51.3773 38.5467 51.3446 38.6499 51.3446 38.7759C51.3446 38.9522 51.4076 39.0983 51.5335 39.2142C51.6594 39.325 51.8207 39.3804 52.0171 39.3804ZM54.7532 36.0707H55.1688L55.2821 36.5241H55.3124C55.4283 36.3478 55.5769 36.2143 55.7583 36.1236C55.9446 36.0279 56.1562 35.9801 56.393 35.9801C56.8967 35.9801 57.272 36.1287 57.5188 36.4258C57.7657 36.723 57.8892 37.2092 57.8892 37.8842C57.8892 38.2016 57.8463 38.4888 57.7607 38.7456C57.6801 38.9975 57.5642 39.2116 57.4131 39.388C57.2619 39.5642 57.0781 39.7003 56.8615 39.796C56.6499 39.8917 56.4131 39.9396 56.1512 39.9396C55.9648 39.9396 55.8162 39.9269 55.7053 39.9018C55.5996 39.8816 55.4837 39.8438 55.3577 39.7884V41.3602H54.7532V36.0707ZM56.2796 36.5089C56.0227 36.5089 55.8187 36.577 55.6676 36.713C55.5214 36.844 55.4182 37.0454 55.3577 37.3175V39.1914C55.4484 39.262 55.5517 39.3174 55.6676 39.3577C55.7834 39.393 55.9371 39.4106 56.1285 39.4106C56.4761 39.4106 56.7506 39.2821 56.9521 39.0253C57.1587 38.7633 57.2619 38.3805 57.2619 37.8767C57.2619 37.6702 57.2443 37.4837 57.2091 37.3175C57.1738 37.1462 57.1158 37.0027 57.0353 36.8868C56.9597 36.7659 56.8589 36.6727 56.733 36.6072C56.6121 36.5417 56.461 36.5089 56.2796 36.5089ZM58.8414 36.0783C59.0176 36.0682 59.2015 36.0556 59.393 36.0405C59.5894 36.0254 59.8313 36.0178 60.1184 36.0178C60.6171 36.0178 60.9748 36.0958 61.1914 36.2521C61.408 36.4032 61.5163 36.6349 61.5163 36.9472C61.5163 37.1236 61.4634 37.2974 61.3576 37.4686C61.2569 37.6349 61.0881 37.7583 60.8513 37.8389V37.8691C61.1486 37.9245 61.3576 38.0278 61.4785 38.1789C61.5995 38.3301 61.6599 38.5315 61.6599 38.7834C61.6599 39.1763 61.5188 39.461 61.2367 39.6373C60.9546 39.8136 60.5315 39.9018 59.9672 39.9018C59.7557 39.9018 59.5592 39.8942 59.3779 39.8791C59.1965 39.869 59.0176 39.8565 58.8414 39.8414V36.0783ZM59.4458 39.3426C59.5416 39.3527 59.6348 39.3602 59.7255 39.3652C59.8212 39.3703 59.932 39.3729 60.0579 39.3729C60.3954 39.3729 60.6448 39.325 60.806 39.2293C60.9723 39.1335 61.0553 38.9698 61.0553 38.7381C61.0553 38.5567 60.9848 38.4107 60.8438 38.2998C60.7078 38.184 60.4634 38.1261 60.1108 38.1261H59.4458V39.3426ZM60.1864 37.6651C60.2771 37.6651 60.3652 37.65 60.4509 37.6198C60.5365 37.5896 60.6121 37.5492 60.6775 37.4989C60.7481 37.4434 60.8035 37.3805 60.8438 37.3099C60.8892 37.2394 60.9118 37.1638 60.9118 37.0833C60.9118 36.8817 60.8513 36.7432 60.7305 36.6676C60.6095 36.5871 60.398 36.5468 60.0957 36.5468C59.9345 36.5468 59.8061 36.5493 59.7103 36.5543C59.6196 36.5593 59.5315 36.5644 59.4458 36.5694V37.6651H60.1864ZM62.5517 36.3503C62.7431 36.2344 62.9648 36.1488 63.2167 36.0934C63.4736 36.0379 63.7406 36.0103 64.0177 36.0103C64.2796 36.0103 64.4887 36.0455 64.6448 36.116C64.806 36.1865 64.927 36.2797 65.0076 36.3956C65.0932 36.5065 65.1486 36.6299 65.1738 36.7659C65.204 36.9019 65.2191 37.0379 65.2191 37.1739C65.2191 37.4762 65.2116 37.7709 65.1965 38.058C65.1814 38.3452 65.1738 38.6172 65.1738 38.8741C65.1738 39.0605 65.1814 39.2368 65.1965 39.4031C65.2116 39.5693 65.2393 39.7229 65.2796 39.864H64.8337L64.675 39.3351H64.6373C64.5919 39.4056 64.534 39.4761 64.4635 39.5466C64.398 39.6122 64.3174 39.6726 64.2217 39.728C64.126 39.7783 64.0151 39.8212 63.8892 39.8565C63.7633 39.8917 63.6197 39.9094 63.4585 39.9094C63.2973 39.9094 63.1461 39.8842 63.0051 39.8338C62.8691 39.7834 62.7507 39.7129 62.65 39.6222C62.5492 39.5265 62.4686 39.4132 62.4082 39.2821C62.3528 39.1512 62.325 39.0025 62.325 38.8363C62.325 38.6147 62.3703 38.4308 62.461 38.2847C62.5517 38.1336 62.6776 38.0152 62.8389 37.9295C63.0051 37.8389 63.2016 37.7759 63.4282 37.7406C63.66 37.7003 63.9144 37.6802 64.1915 37.6802C64.262 37.6802 64.33 37.6802 64.3955 37.6802C64.466 37.6802 64.5365 37.6852 64.607 37.6953C64.6222 37.5442 64.6297 37.4081 64.6297 37.2873C64.6297 37.0102 64.5743 36.8162 64.4635 36.7055C64.3526 36.5946 64.1512 36.5392 63.859 36.5392C63.7733 36.5392 63.6802 36.5468 63.5794 36.5619C63.4837 36.572 63.3829 36.5896 63.2772 36.6148C63.1764 36.6349 63.0782 36.6626 62.9824 36.6979C62.8917 36.7281 62.8112 36.7634 62.7407 36.8037L62.5517 36.3503ZM63.6247 39.3804C63.7657 39.3804 63.8917 39.3628 64.0026 39.3275C64.1133 39.2872 64.2091 39.2394 64.2897 39.1839C64.3703 39.1235 64.4358 39.058 64.4861 38.9874C64.5415 38.917 64.5819 38.8489 64.607 38.7834V38.1563C64.5365 38.1512 64.4635 38.1487 64.3879 38.1487C64.3174 38.1436 64.2469 38.1412 64.1764 38.1412C64.0202 38.1412 63.8665 38.1512 63.7154 38.1714C63.5693 38.1865 63.4383 38.2192 63.3225 38.2696C63.2116 38.315 63.1209 38.3805 63.0504 38.466C62.985 38.5467 62.9522 38.6499 62.9522 38.7759C62.9522 38.9522 63.0152 39.0983 63.1411 39.2142C63.2671 39.325 63.4282 39.3804 63.6247 39.3804ZM68.7638 36.5996H67.585V39.8489H66.9805V36.5996H65.8017V36.0707H68.7638V36.5996ZM72.0043 39.5466C71.8531 39.6676 71.6617 39.7632 71.4299 39.8338C71.2033 39.9043 70.9615 39.9396 70.7045 39.9396C70.4174 39.9396 70.168 39.8942 69.9565 39.8035C69.7448 39.7078 69.571 39.5743 69.4351 39.4031C69.299 39.2267 69.1983 39.0177 69.1328 38.7759C69.0673 38.5341 69.0345 38.262 69.0345 37.9598C69.0345 37.315 69.1781 36.8238 69.4653 36.4863C69.7524 36.1488 70.163 35.9801 70.697 35.9801C70.8682 35.9801 71.0395 36.0002 71.2108 36.0405C71.3821 36.0757 71.5357 36.1462 71.6718 36.2521C71.8077 36.3579 71.9186 36.5089 72.0043 36.7055C72.0899 36.8968 72.1327 37.1513 72.1327 37.4686C72.1327 37.6349 72.1176 37.8188 72.0874 38.0202H69.6617C69.6617 38.2419 69.6845 38.4384 69.7297 38.6096C69.7751 38.7809 69.8456 38.927 69.9414 39.0479C70.0371 39.1638 70.1605 39.2545 70.3116 39.32C70.4678 39.3804 70.6567 39.4106 70.8783 39.4106C71.0496 39.4106 71.2209 39.3804 71.3922 39.32C71.5634 39.2595 71.6919 39.189 71.7775 39.1084L72.0043 39.5466ZM70.7045 36.5089C70.4073 36.5089 70.168 36.5871 69.9867 36.7432C69.8103 36.8994 69.7046 37.1664 69.6693 37.5442H71.5433C71.5433 37.1613 71.4702 36.8944 71.3242 36.7432C71.1781 36.5871 70.9716 36.5089 70.7045 36.5089ZM73.0834 36.0707H73.499L73.6123 36.5241H73.6425C73.7584 36.3478 73.907 36.2143 74.0884 36.1236C74.2748 36.0279 74.4864 35.9801 74.7231 35.9801C75.2269 35.9801 75.6022 36.1287 75.849 36.4258C76.0959 36.723 76.2193 37.2092 76.2193 37.8842C76.2193 38.2016 76.1764 38.4888 76.0909 38.7456C76.0102 38.9975 75.8943 39.2116 75.7433 39.388C75.5921 39.5642 75.4082 39.7003 75.1916 39.796C74.98 39.8917 74.7433 39.9396 74.4813 39.9396C74.2949 39.9396 74.1463 39.9269 74.0355 39.9018C73.9297 39.8816 73.8138 39.8438 73.6879 39.7884V41.3602H73.0834V36.0707ZM74.6098 36.5089C74.3528 36.5089 74.1488 36.577 73.9977 36.713C73.8516 36.844 73.7483 37.0454 73.6879 37.3175V39.1914C73.7786 39.262 73.8818 39.3174 73.9977 39.3577C74.1136 39.393 74.2672 39.4106 74.4586 39.4106C74.8062 39.4106 75.0808 39.2821 75.2823 39.0253C75.4888 38.7633 75.5921 38.3805 75.5921 37.8767C75.5921 37.6702 75.5745 37.4837 75.5392 37.3175C75.504 37.1462 75.446 37.0027 75.3654 36.8868C75.2899 36.7659 75.1891 36.6727 75.0632 36.6072C74.9423 36.5417 74.7911 36.5089 74.6098 36.5089ZM80.2967 38.519L80.5081 39.2444H80.5463L80.7124 38.5114L81.4451 36.0707H82.0578L80.9389 39.4636C80.8538 39.7104 80.768 39.9497 80.6822 40.1814C80.6019 40.4131 80.5113 40.6196 80.4104 40.801C80.3095 40.9824 80.1958 41.1259 80.0702 41.2317C79.9439 41.3425 79.7985 41.3979 79.6316 41.3979C79.4505 41.3979 79.3019 41.3727 79.1861 41.3224L79.2918 40.801C79.3573 40.8262 79.4203 40.8388 79.4806 40.8388C79.622 40.8388 79.7579 40.7632 79.8891 40.6121C80.0194 40.466 80.1283 40.2116 80.2141 39.8489L78.6949 36.0707H79.3901L80.2967 38.519ZM85.2382 39.5995C85.0872 39.7104 84.9084 39.7935 84.7018 39.8489C84.4952 39.9094 84.279 39.9396 84.0517 39.9396C83.7601 39.9396 83.5129 39.8942 83.3118 39.8035C83.11 39.7078 82.9439 39.5743 82.8128 39.4031C82.6872 39.2267 82.5934 39.0177 82.533 38.7759C82.4782 38.5291 82.4504 38.257 82.4504 37.9598C82.4504 37.32 82.591 36.8313 82.8732 36.4938C83.1553 36.1513 83.5606 35.9801 84.0899 35.9801C84.3314 35.9801 84.5357 36.0002 84.7018 36.0405C84.8734 36.0757 85.0268 36.1287 85.1627 36.1992L84.9895 36.7206C84.8734 36.6551 84.7447 36.6047 84.604 36.5694C84.4626 36.5291 84.3116 36.5089 84.1502 36.5089C83.435 36.5089 83.0774 36.9926 83.0774 37.9598C83.0774 38.1512 83.0949 38.3351 83.1299 38.5114C83.1704 38.6827 83.2332 38.8363 83.319 38.9723C83.4096 39.1033 83.5256 39.2091 83.6671 39.2898C83.8125 39.3703 83.9913 39.4106 84.2035 39.4106C84.3847 39.4106 84.546 39.3829 84.6867 39.3275C84.8329 39.2721 84.9513 39.2091 85.0419 39.1386L85.2382 39.5995ZM88.3455 36.5996H86.6758V39.8489H86.071V36.0707H88.9502V39.8489H88.3455V36.5996ZM92.8729 39.5466C92.7219 39.6676 92.5304 39.7632 92.2983 39.8338C92.0718 39.9043 91.8303 39.9396 91.5736 39.9396C91.2859 39.9396 91.0363 39.8942 90.825 39.8035C90.6136 39.7078 90.4395 39.5743 90.3036 39.4031C90.1677 39.2267 90.0668 39.0177 90.0016 38.7759C89.9357 38.5341 89.9031 38.262 89.9031 37.9598C89.9031 37.315 90.0469 36.8238 90.3338 36.4863C90.6207 36.1488 91.0316 35.9801 91.5656 35.9801C91.7373 35.9801 91.9081 36.0002 92.0798 36.0405C92.2506 36.0757 92.404 36.1462 92.5407 36.2521C92.6766 36.3579 92.7871 36.5089 92.8729 36.7055C92.9587 36.8968 93.0016 37.1513 93.0016 37.4686C93.0016 37.6349 92.9865 37.8188 92.9563 38.0202H90.5301C90.5301 38.2419 90.5532 38.4384 90.5985 38.6096C90.6438 38.7809 90.7145 38.927 90.8098 39.0479C90.906 39.1638 91.0292 39.2545 91.1802 39.32C91.3367 39.3804 91.5251 39.4106 91.7468 39.4106C91.9185 39.4106 92.0893 39.3804 92.261 39.32C92.4318 39.2595 92.5606 39.189 92.6464 39.1084L92.8729 39.5466ZM91.5736 36.5089C91.2763 36.5089 91.0363 36.5871 90.8551 36.7432C90.6787 36.8994 90.573 37.1664 90.5381 37.5442H92.412C92.412 37.1613 92.3389 36.8944 92.1926 36.7432C92.0464 36.5871 91.8398 36.5089 91.5736 36.5089ZM93.9521 39.8489V36.0707H94.5569V39.32H95.8491V36.0707H96.453V39.32H97.7452V36.0707H98.35V39.8489H93.9521ZM101.828 38.1789H100.121V39.8489H99.5158V36.0707H100.121V37.65H101.828V36.0707H102.433V39.8489H101.828V38.1789ZM103.385 37.9598C103.385 37.32 103.526 36.8313 103.808 36.4938C104.096 36.1513 104.506 35.9801 105.04 35.9801C105.322 35.9801 105.567 36.0279 105.773 36.1236C105.985 36.2143 106.159 36.3478 106.295 36.5241C106.431 36.6954 106.531 36.9045 106.597 37.1513C106.662 37.393 106.695 37.6626 106.695 37.9598C106.695 38.5996 106.551 39.0908 106.264 39.4333C105.982 39.7708 105.574 39.9396 105.04 39.9396C104.758 39.9396 104.511 39.8942 104.299 39.8035C104.093 39.7078 103.922 39.5743 103.786 39.4031C103.65 39.2267 103.549 39.0177 103.484 38.7759C103.418 38.5291 103.385 38.257 103.385 37.9598ZM104.012 37.9598C104.012 38.1512 104.03 38.3351 104.065 38.5114C104.105 38.6877 104.166 38.8414 104.247 38.9723C104.327 39.1033 104.433 39.2091 104.564 39.2898C104.695 39.3703 104.854 39.4106 105.04 39.4106C105.725 39.4156 106.067 38.9321 106.067 37.9598C106.067 37.7633 106.047 37.5769 106.007 37.4006C105.972 37.2243 105.914 37.0706 105.834 36.9397C105.753 36.8087 105.647 36.7055 105.516 36.6299C105.385 36.5493 105.227 36.5089 105.04 36.5089C104.355 36.5039 104.012 36.9875 104.012 37.9598ZM109.854 36.5996H108.253V39.8489H107.648V36.0707H109.854V36.5996ZM110.108 37.9598C110.108 37.32 110.249 36.8313 110.531 36.4938C110.818 36.1513 111.229 35.9801 111.762 35.9801C112.044 35.9801 112.289 36.0279 112.496 36.1236C112.707 36.2143 112.881 36.3478 113.017 36.5241C113.153 36.6954 113.254 36.9045 113.319 37.1513C113.385 37.393 113.418 37.6626 113.418 37.9598C113.418 38.5996 113.274 39.0908 112.987 39.4333C112.705 39.7708 112.296 39.9396 111.762 39.9396C111.481 39.9396 111.234 39.8942 111.022 39.8035C110.816 39.7078 110.644 39.5743 110.508 39.4031C110.372 39.2267 110.271 39.0177 110.206 38.7759C110.14 38.5291 110.108 38.257 110.108 37.9598ZM110.735 37.9598C110.735 38.1512 110.753 38.3351 110.788 38.5114C110.828 38.6877 110.889 38.8414 110.969 38.9723C111.05 39.1033 111.156 39.2091 111.286 39.2898C111.417 39.3703 111.576 39.4106 111.762 39.4106C112.448 39.4156 112.791 38.9321 112.791 37.9598C112.791 37.7633 112.77 37.5769 112.73 37.4006C112.694 37.2243 112.636 37.0706 112.556 36.9397C112.475 36.8087 112.369 36.7055 112.239 36.6299C112.108 36.5493 111.949 36.5089 111.762 36.5089C111.077 36.5039 110.735 36.9875 110.735 37.9598ZM45.1084 44.0178H45.5241L45.6374 44.4711H45.6677C45.7835 44.2948 45.9322 44.1613 46.1135 44.0706C46.2999 43.9749 46.5115 43.9271 46.7482 43.9271C47.252 43.9271 47.6273 44.0757 47.8741 44.3728C48.121 44.67 48.2444 45.1562 48.2444 45.8313C48.2444 46.1486 48.2016 46.4358 48.1159 46.6926C48.0353 46.9446 47.9195 47.1587 47.7683 47.335C47.6172 47.5113 47.4334 47.6473 47.2167 47.743C47.0052 47.8388 46.7683 47.8866 46.5064 47.8866C46.3201 47.8866 46.1714 47.874 46.0606 47.8488C45.9548 47.8287 45.8389 47.7908 45.713 47.7354V49.3072H45.1084V44.0178ZM46.6349 44.456C46.378 44.456 46.1739 44.524 46.0228 44.66C45.8767 44.791 45.7735 44.9925 45.713 45.2645V47.1385C45.8037 47.209 45.907 47.2644 46.0228 47.3047C46.1387 47.34 46.2923 47.3576 46.4838 47.3576C46.8314 47.3576 47.1059 47.2291 47.3074 46.9723C47.5139 46.7103 47.6172 46.3275 47.6172 45.8237C47.6172 45.6172 47.5996 45.4307 47.5643 45.2645C47.529 45.0932 47.4711 44.9497 47.3905 44.8338C47.3149 44.7129 47.2142 44.6197 47.0883 44.5543C46.9673 44.4887 46.8163 44.456 46.6349 44.456ZM49.1362 44.2973C49.3276 44.1815 49.5492 44.0958 49.8012 44.0404C50.058 43.9849 50.325 43.9573 50.6021 43.9573C50.8641 43.9573 51.0731 43.9926 51.2293 44.0631C51.3905 44.1335 51.5114 44.2268 51.592 44.3426C51.6776 44.4535 51.733 44.5769 51.7582 44.7129C51.7885 44.8489 51.8036 44.9849 51.8036 45.121C51.8036 45.4232 51.796 45.7179 51.7809 46.0051C51.7658 46.2922 51.7582 46.5642 51.7582 46.8211C51.7582 47.0075 51.7658 47.1838 51.7809 47.3501C51.796 47.5164 51.8238 47.67 51.8641 47.811H51.4182L51.2595 47.2821H51.2217C51.1764 47.3526 51.1185 47.4231 51.0479 47.4936C50.9824 47.5592 50.9018 47.6196 50.8061 47.675C50.7104 47.7254 50.5996 47.7682 50.4736 47.8035C50.3477 47.8388 50.2042 47.8564 50.0429 47.8564C49.8817 47.8564 49.7306 47.8312 49.5895 47.7808C49.4536 47.7304 49.3352 47.6599 49.2344 47.5692C49.1336 47.4735 49.053 47.3602 48.9926 47.2291C48.9372 47.0982 48.9095 46.9496 48.9095 46.7833C48.9095 46.5617 48.9548 46.3779 49.0455 46.2317C49.1362 46.0806 49.2621 45.9622 49.4233 45.8766C49.5895 45.7859 49.786 45.7229 50.0127 45.6877C50.2444 45.6474 50.4988 45.6273 50.7759 45.6273C50.8464 45.6273 50.9145 45.6273 50.9799 45.6273C51.0504 45.6273 51.121 45.6323 51.1915 45.6424C51.2066 45.4912 51.2141 45.3552 51.2141 45.2343C51.2141 44.9572 51.1588 44.7633 51.0479 44.6525C50.9371 44.5416 50.7356 44.4862 50.4434 44.4862C50.3578 44.4862 50.2646 44.4938 50.1639 44.5089C50.0681 44.519 49.9673 44.5366 49.8616 44.5618C49.7608 44.5819 49.6626 44.6096 49.5669 44.6449C49.4762 44.6751 49.3956 44.7104 49.3251 44.7507L49.1362 44.2973ZM50.2092 47.3274C50.3502 47.3274 50.4762 47.3098 50.587 47.2745C50.6978 47.2342 50.7935 47.1864 50.8742 47.1309C50.9548 47.0705 51.0202 47.005 51.0706 46.9345C51.126 46.864 51.1663 46.796 51.1915 46.7305V46.1033C51.121 46.0982 51.0479 46.0957 50.9724 46.0957C50.9018 46.0907 50.8313 46.0882 50.7608 46.0882C50.6046 46.0882 50.451 46.0982 50.2998 46.1184C50.1538 46.1335 50.0228 46.1662 49.9069 46.2166C49.7961 46.262 49.7054 46.3275 49.6349 46.4131C49.5694 46.4937 49.5367 46.597 49.5367 46.7229C49.5367 46.8992 49.5996 47.0453 49.7256 47.1612C49.8515 47.272 50.0127 47.3274 50.2092 47.3274ZM53.308 46.1108V45.6196H53.837C53.9277 45.6196 54.0158 45.6045 54.1015 45.5743C54.1921 45.5441 54.2727 45.5038 54.3432 45.4535C54.4138 45.398 54.4692 45.3351 54.5095 45.2645C54.5548 45.189 54.5775 45.1109 54.5775 45.0303C54.5775 44.8338 54.5095 44.6952 54.3735 44.6147C54.2374 44.5341 54.0334 44.4938 53.7614 44.4938C53.565 44.4938 53.3836 44.524 53.2174 44.5845C53.0561 44.6449 52.9301 44.7029 52.8395 44.7583L52.6658 44.2898C52.8168 44.2041 52.9932 44.1285 53.1946 44.0631C53.4012 43.9976 53.6455 43.9648 53.9277 43.9648C54.7638 43.9648 55.182 44.2746 55.182 44.8942C55.182 45.0706 55.1241 45.2444 55.0082 45.4156C54.8973 45.5819 54.7362 45.7003 54.5246 45.7708V45.801C54.8218 45.8565 55.0283 45.9622 55.1442 46.1184C55.2651 46.2745 55.3255 46.4811 55.3255 46.738C55.3255 46.8992 55.2928 47.0478 55.2273 47.1838C55.1618 47.3199 55.0636 47.4382 54.9326 47.539C54.8017 47.6398 54.6354 47.7204 54.4339 47.7808C54.2374 47.8362 54.0082 47.864 53.7463 47.864C53.4894 47.864 53.2753 47.8412 53.1039 47.7959C52.9378 47.7505 52.7866 47.6952 52.6506 47.6297L52.8244 47.1309C52.9402 47.1964 53.0788 47.2468 53.24 47.2821C53.4063 47.3174 53.5851 47.335 53.7765 47.335C54.0838 47.335 54.318 47.2821 54.4793 47.1763C54.6404 47.0705 54.7211 46.9093 54.7211 46.6926C54.7211 46.5113 54.6455 46.3703 54.4944 46.2695C54.3432 46.1638 54.0939 46.1108 53.7463 46.1108H53.308ZM56.2808 44.0253C56.457 44.0152 56.6409 44.0026 56.8324 43.9875C57.0288 43.9724 57.2707 43.9648 57.5578 43.9648C58.0565 43.9648 58.4141 44.0429 58.6308 44.1991C58.8474 44.3502 58.9557 44.5819 58.9557 44.8942C58.9557 45.0706 58.9028 45.2444 58.797 45.4156C58.6963 45.5819 58.5275 45.7053 58.2907 45.7859V45.8162C58.5879 45.8716 58.797 45.9748 58.9179 46.1259C59.0388 46.2771 59.0993 46.4785 59.0993 46.7305C59.0993 47.1234 58.9582 47.408 58.6761 47.5843C58.394 47.7606 57.9709 47.8488 57.4066 47.8488C57.1951 47.8488 56.9986 47.8412 56.8173 47.8261C56.6359 47.816 56.457 47.8035 56.2808 47.7884V44.0253ZM56.8852 47.2896C56.981 47.2997 57.0741 47.3073 57.1648 47.3123C57.2606 47.3174 57.3713 47.3199 57.4973 47.3199C57.8348 47.3199 58.0842 47.272 58.2454 47.1763C58.4116 47.0805 58.4947 46.9168 58.4947 46.6851C58.4947 46.5037 58.4242 46.3577 58.2832 46.2468C58.1471 46.131 57.9028 46.0731 57.5502 46.0731H56.8852V47.2896ZM57.6258 45.6121C57.7165 45.6121 57.8046 45.597 57.8903 45.5668C57.9759 45.5366 58.0514 45.4962 58.1169 45.4459C58.1875 45.3904 58.2429 45.3275 58.2832 45.2569C58.3286 45.1864 58.3512 45.1109 58.3512 45.0303C58.3512 44.8287 58.2907 44.6902 58.1699 44.6147C58.0489 44.5341 57.8374 44.4938 57.5351 44.4938C57.3739 44.4938 57.2455 44.4963 57.1497 44.5013C57.059 44.5063 56.9709 44.5114 56.8852 44.5164V45.6121H57.6258ZM62.4091 45.5592L62.4318 45.0908H62.4091L62.0993 45.5743L60.3991 47.7959H60.0515V44.0178H60.6561V46.3224L60.6334 46.7682H60.6636L60.9583 46.2997L62.6585 44.0178H63.0136V47.7959H62.4091V45.5592ZM66.5795 44.5466H65.4007V47.7959H64.7962V44.5466H63.6174V44.0178H66.5795V44.5466ZM69.5375 45.5592L69.5602 45.0908H69.5375L69.2277 45.5743L67.5275 47.7959H67.1799V44.0178H67.7845V46.3224L67.7618 46.7682H67.792L68.0867 46.2997L69.7869 44.0178H70.142V47.7959H69.5375V45.5592ZM73.1865 46.2317L72.6047 46.3224L71.6072 47.7959H70.8743L71.781 46.5037L72.0833 46.2242C71.8213 46.1839 71.5971 46.0781 71.4108 45.9068C71.2294 45.7355 71.1388 45.5038 71.1388 45.2116C71.1388 44.9849 71.1765 44.791 71.2521 44.6298C71.3327 44.4686 71.446 44.3351 71.5921 44.2293C71.7382 44.1235 71.912 44.048 72.1135 44.0026C72.315 43.9522 72.5417 43.9271 72.7936 43.9271C72.98 43.9271 73.1538 43.9396 73.315 43.9648C73.4762 43.99 73.6348 44.0178 73.791 44.048V47.7959H73.1865V46.2317ZM73.1865 44.5315C73.1211 44.5063 73.0479 44.4887 72.9674 44.4787C72.8868 44.4636 72.8163 44.456 72.7558 44.456C72.4334 44.456 72.1866 44.5139 72.0153 44.6298C71.8491 44.7456 71.7659 44.9295 71.7659 45.1814C71.7659 45.4081 71.8541 45.5844 72.0304 45.7103C72.2118 45.8313 72.4485 45.8917 72.7407 45.8917C72.7457 45.8917 72.7533 45.8917 72.7634 45.8917C72.7735 45.8917 72.7936 45.8917 72.8238 45.8917C72.854 45.8917 72.8969 45.8917 72.9523 45.8917C73.0077 45.8867 73.0858 45.8816 73.1865 45.8766V44.5315Z" fill="#5F596B"/>
<path d="M0 4.79782H25.3644L21.241 29.8545H0V4.79782Z" fill="url(#paint0_linear_59_188)"/>
<path d="M102.733 4.45477L117.509 30.023H87.9584L102.733 4.45477Z" fill="url(#paint1_linear_59_188)"/>
<path d="M14.3434 29.8548L25.3978 4.81259H32.3737L43.4639 29.8548H36.0943L27.4369 8.28272H30.2273L21.5698 29.8548H14.3434ZM20.3893 24.9894L22.2138 19.7664H34.4487L36.2732 24.9894H20.3893Z" fill="black"/>
<path d="M44.8065 29.8548V10.465H51.6037V29.8548H44.8065ZM48.2052 8.3185C46.9649 8.3185 45.9633 7.97268 45.2001 7.28104C44.4369 6.5894 44.0553 5.73081 44.0553 4.70527C44.0553 3.67973 44.4369 2.82114 45.2001 2.1295C45.9633 1.43786 46.9649 1.09204 48.2052 1.09204C49.4454 1.09204 50.447 1.42594 51.2102 2.09373C51.9734 2.73767 52.355 3.57241 52.355 4.59795C52.355 5.67118 51.9734 6.56555 51.2102 7.28104C50.4708 7.97268 49.4692 8.3185 48.2052 8.3185Z" fill="black"/>
<path d="M53.1202 25.061V20.4461L64.3534 4.81259H71.6873L60.776 20.4461L57.4132 19.4444H76.9819V25.061H53.1202ZM66.3568 29.8548V25.061L66.5714 19.4444V15.1872H73.2613V29.8548H66.3568Z" fill="black"/>
<path d="M91.6434 30.3557C89.6646 30.3557 87.8281 30.0456 86.1345 29.4255C84.441 28.7816 82.9748 27.8753 81.7343 26.7066C80.5176 25.538 79.5639 24.1667 78.8722 22.5925C78.1806 20.9946 77.8348 19.2417 77.8348 17.3337C77.8348 15.4257 78.1806 13.6847 78.8722 12.1106C79.5639 10.5127 80.5295 9.1294 81.77 7.96077C83.0106 6.79214 84.4768 5.89777 86.1703 5.27768C87.8877 4.63373 89.76 4.31177 91.7873 4.31177C94.1483 4.31177 96.2591 4.70529 98.1187 5.49232C99.2185 5.95736 100.272 6.57951 101.146 7.286L100.125 9.01616L97.9843 12.7317C97.1253 11.8015 96.4379 11.3474 95.4357 10.8943C94.4583 10.4173 93.3608 10.1788 92.1449 10.1788C91.0712 10.1788 90.0938 10.3458 89.2108 10.6796C88.3287 11.0136 87.5777 11.5025 86.9571 12.1464C86.3372 12.7665 85.8485 13.5177 85.4908 14.4002C85.1571 15.2588 84.9894 16.2366 84.9894 17.3337C84.9894 18.3831 85.1571 19.349 85.4908 20.2315C85.8485 21.1139 86.3372 21.8771 86.9571 22.521C87.5777 23.1411 88.3168 23.63 89.1751 23.9878C90.058 24.3216 91.0236 24.4886 92.0734 24.4886C93.1224 24.4886 94.1483 24.3216 95.1496 23.9878C96.1518 23.63 97.165 23.0337 98.1902 22.1991L102.161 27.1717C100.731 28.1972 99.0731 28.9843 97.1889 29.5328C95.3046 30.0814 93.4561 30.3557 91.6434 30.3557ZM95.9006 26.2416V16.7971H102.161V27.1717L95.9006 26.2416Z" fill="black"/>
<defs>
<linearGradient id="paint0_linear_59_188" x1="12.6822" y1="4.79782" x2="12.6822" y2="29.8545" gradientUnits="userSpaceOnUse">
<stop stop-color="#FF008A"/>
<stop offset="1" stop-color="#FA00FF"/>
</linearGradient>
<linearGradient id="paint1_linear_59_188" x1="102.733" y1="4.45477" x2="102.733" y2="38.5457" gradientUnits="userSpaceOnUse">
<stop offset="0.317708" stop-color="#06EA6F"/>
<stop offset="1" stop-color="#0386FF"/>
</linearGradient>
</defs>
</svg>
