<svg width="14" height="15" viewBox="0 0 14 15" fill="none" xmlns="http://www.w3.org/2000/svg">
<path fill-rule="evenodd" clip-rule="evenodd" d="M11.6666 6.16716C11.6666 3.46104 10.1744 1.58283 8.24357 1.01897C8.17366 0.838068 8.06316 0.669894 7.91297 0.52878C7.3998 0.04662 6.60016 0.04662 6.08699 0.52878C5.93713 0.669584 5.82679 0.837329 5.75685 1.01778C3.82355 1.57918 2.33331 3.45329 2.33331 6.16716C2.33331 7.92309 1.9793 8.90701 1.32395 9.62005C1.21438 9.73926 0.91752 10.0124 0.716426 10.1973L0.71641 10.1974L0.716302 10.1975C0.621218 10.2849 0.547566 10.3527 0.525289 10.3751L0.333313 10.5698V12.8432H4.39196C4.5292 13.5512 4.91337 14.0249 5.60811 14.4489C6.46274 14.9704 7.53722 14.9704 8.39185 14.4489C9.00497 14.0747 9.41608 13.4997 9.58286 12.8432H13.6666V10.5698L13.4747 10.3751C13.4545 10.3546 13.3838 10.2894 13.2913 10.2042L13.2913 10.2041C13.0908 10.0192 12.7881 9.73997 12.6769 9.61845C12.0211 8.90209 11.6666 7.91692 11.6666 6.16716ZM8.15779 12.8432H5.78572C5.87991 13.0184 6.04045 13.1507 6.30266 13.3107C6.73082 13.572 7.26913 13.572 7.6973 13.3107C7.89558 13.1898 8.0505 13.0297 8.15779 12.8432ZM11.6934 10.5188C11.8337 10.672 12.1344 10.9521 12.3333 11.1351V11.5099H1.66665V11.1354C1.86403 10.9546 2.1656 10.6747 2.30564 10.5223C3.19613 9.55343 3.66665 8.24569 3.66665 6.16716C3.66665 3.64709 5.22183 2.17541 6.99998 2.17541C8.77312 2.17541 10.3333 3.65469 10.3333 6.16716C10.3333 8.23902 10.804 9.54716 11.6934 10.5188Z" fill="#2E363E"/>
</svg>
