<svg width="22" height="18" viewBox="0 0 22 18" fill="none" xmlns="http://www.w3.org/2000/svg">
<path fill-rule="evenodd" clip-rule="evenodd" d="M5.93702 2.84583C6.00787 2.74734 6.08656 2.62676 6.18689 2.46418C6.22355 2.40479 6.32349 2.2399 6.39792 2.11711L6.39798 2.117L6.4818 1.97887C7.31079 0.622845 7.91339 0.000457764 9 0.000457764H13C14.0866 0.000457764 14.6892 0.622845 15.5182 1.97887L15.6021 2.11709C15.6765 2.23989 15.7765 2.40478 15.8131 2.46418C15.9134 2.62676 15.9921 2.74734 16.063 2.84583C16.1097 2.91079 16.1505 2.9624 16.1838 3.00046H19C20.6569 3.00046 22 4.3436 22 6.00046V15.0005C22 16.6573 20.6569 18.0005 19 18.0005H3C1.34315 18.0005 0 16.6573 0 15.0005V6.00046C0 4.3436 1.34315 3.00046 3 3.00046H5.8162C5.84949 2.9624 5.8903 2.91079 5.93702 2.84583ZM3 5.00046C2.44772 5.00046 2 5.44817 2 6.00046V15.0005C2 15.5527 2.44772 16.0005 3 16.0005H19C19.5523 16.0005 20 15.5527 20 15.0005V6.00046C20 5.44817 19.5523 5.00046 19 5.00046H16C15.3357 5.00046 14.8876 4.63687 14.4394 4.01371C14.3363 3.87034 14.2341 3.71378 14.1111 3.51455C14.069 3.44629 13.9596 3.26582 13.8846 3.14198L13.8118 3.02205C13.3595 2.28218 13.0867 2.00046 13 2.00046H9C8.91327 2.00046 8.6405 2.28218 8.1882 3.02205L8.11543 3.14198L8.11502 3.14265C8.03998 3.26647 7.93092 3.44641 7.88887 3.51455C7.76592 3.71378 7.66375 3.87034 7.56061 4.01371C7.11237 4.63687 6.66434 5.00046 6 5.00046H3ZM19 7.00046C19 7.55274 18.5523 8.00046 18 8.00046C17.4477 8.00046 17 7.55274 17 7.00046C17 6.44817 17.4477 6.00046 18 6.00046C18.5523 6.00046 19 6.44817 19 7.00046ZM6 10.0005C6 12.7619 8.23858 15.0005 11 15.0005C13.7614 15.0005 16 12.7619 16 10.0005C16 7.23903 13.7614 5.00046 11 5.00046C8.23858 5.00046 6 7.23903 6 10.0005ZM14 10.0005C14 11.6573 12.6569 13.0005 11 13.0005C9.34315 13.0005 8 11.6573 8 10.0005C8 8.3436 9.34315 7.00046 11 7.00046C12.6569 7.00046 14 8.3436 14 10.0005Z" fill="#2E363E"/>
</svg>
