<svg width="197" height="64" viewBox="0 0 197 64" fill="none" xmlns="http://www.w3.org/2000/svg">
<rect y="31.8198" width="45" height="45" rx="22.5" transform="rotate(-45 0 31.8198)" fill="#3B8BEB"/>
<path d="M19.2928 18.27C20.2134 17.3493 21.1638 16.7059 22.1438 16.3396C23.1338 15.9634 24.094 15.8743 25.0246 16.0723C25.9551 16.2703 26.8065 16.7554 27.5786 17.5275C28.3409 18.2898 28.826 19.1412 29.0339 20.0816C29.2319 21.0122 29.1428 21.9724 28.7666 22.9624C28.3904 23.9325 27.742 24.8779 26.8213 25.7986L24.7276 27.8923L27.5935 30.7582L25.1879 33.1638L14.7934 22.7693L19.2928 18.27ZM24.7276 23.9721C25.4503 23.2494 25.8462 22.5466 25.9155 21.8635C25.9749 21.1706 25.7175 20.537 25.1434 19.9628C24.5593 19.3787 23.9257 19.1214 23.2427 19.1907C22.5497 19.25 21.8419 19.6411 21.1192 20.3637L19.1591 22.3238L22.7675 25.9322L24.7276 23.9721ZM35.8009 38.2089L32.4747 41.5352L30.5146 39.5751L39.5727 30.517L41.5328 32.4771L38.2065 35.8034L46.6409 44.2377L44.2353 46.6433L35.8009 38.2089Z" fill="white"/>
<path d="M76.4469 24.6198C78.3509 24.6198 79.8489 25.0748 80.9409 25.9848C82.0329 26.8948 82.5789 28.1478 82.5789 29.7438C82.5789 31.3398 82.0329 32.5928 80.9409 33.5028C79.8489 34.4128 78.3509 34.8678 76.4469 34.8678H72.8139V39.3198H70.7139V24.6198H76.4469ZM76.3839 33.0408C77.7139 33.0408 78.7289 32.7608 79.4289 32.2008C80.1289 31.6268 80.4789 30.8078 80.4789 29.7438C80.4789 28.6798 80.1289 27.8678 79.4289 27.3078C78.7289 26.7338 77.7139 26.4468 76.3839 26.4468H72.8139V33.0408H76.3839ZM95.2806 28.1898L89.8836 40.4328C89.4076 41.5668 88.8476 42.3648 88.2036 42.8268C87.5736 43.2888 86.8106 43.5198 85.9146 43.5198C85.3686 43.5198 84.8366 43.4288 84.3186 43.2468C83.8146 43.0788 83.3946 42.8268 83.0586 42.4908L83.9196 40.9788C84.4936 41.5248 85.1586 41.7978 85.9146 41.7978C86.4046 41.7978 86.8106 41.6648 87.1326 41.3988C87.4686 41.1468 87.7696 40.7058 88.0356 40.0758L88.3926 39.2988L83.4786 28.1898H85.5786L89.4636 37.0938L93.3066 28.1898H95.2806ZM103.728 38.6688C103.434 38.9208 103.07 39.1168 102.636 39.2568C102.202 39.3828 101.754 39.4458 101.292 39.4458C100.172 39.4458 99.3037 39.1448 98.6877 38.5428C98.0717 37.9408 97.7637 37.0798 97.7637 35.9598V29.8488H95.8737V28.1898H97.7637V25.7538H99.7797V28.1898H102.972V29.8488H99.7797V35.8758C99.7797 36.4778 99.9267 36.9398 100.221 37.2618C100.529 37.5838 100.963 37.7448 101.523 37.7448C102.139 37.7448 102.664 37.5698 103.098 37.2198L103.728 38.6688ZM112.108 28.0848C113.522 28.0848 114.642 28.4978 115.468 29.3238C116.308 30.1358 116.728 31.3328 116.728 32.9148V39.3198H114.712V33.1458C114.712 32.0678 114.453 31.2558 113.935 30.7098C113.417 30.1638 112.675 29.8908 111.709 29.8908C110.617 29.8908 109.756 30.2128 109.126 30.8568C108.496 31.4868 108.181 32.3968 108.181 33.5868V39.3198H106.165V23.7378H108.181V29.7648C108.601 29.2328 109.147 28.8198 109.819 28.5258C110.505 28.2318 111.268 28.0848 112.108 28.0848ZM125.287 39.4458C124.181 39.4458 123.187 39.2008 122.305 38.7108C121.423 38.2208 120.73 37.5488 120.226 36.6948C119.736 35.8268 119.491 34.8468 119.491 33.7548C119.491 32.6628 119.736 31.6898 120.226 30.8358C120.73 29.9678 121.423 29.2958 122.305 28.8198C123.187 28.3298 124.181 28.0848 125.287 28.0848C126.393 28.0848 127.38 28.3298 128.248 28.8198C129.13 29.2958 129.816 29.9678 130.306 30.8358C130.81 31.6898 131.062 32.6628 131.062 33.7548C131.062 34.8468 130.81 35.8268 130.306 36.6948C129.816 37.5488 129.13 38.2208 128.248 38.7108C127.38 39.2008 126.393 39.4458 125.287 39.4458ZM125.287 37.6818C126.001 37.6818 126.638 37.5208 127.198 37.1988C127.772 36.8628 128.22 36.4008 128.542 35.8128C128.864 35.2108 129.025 34.5248 129.025 33.7548C129.025 32.9848 128.864 32.3058 128.542 31.7178C128.22 31.1158 127.772 30.6538 127.198 30.3318C126.638 30.0098 126.001 29.8488 125.287 29.8488C124.573 29.8488 123.929 30.0098 123.355 30.3318C122.795 30.6538 122.347 31.1158 122.011 31.7178C121.689 32.3058 121.528 32.9848 121.528 33.7548C121.528 34.5248 121.689 35.2108 122.011 35.8128C122.347 36.4008 122.795 36.8628 123.355 37.1988C123.929 37.5208 124.573 37.6818 125.287 37.6818ZM139.794 28.0848C141.208 28.0848 142.328 28.4978 143.154 29.3238C143.994 30.1358 144.414 31.3328 144.414 32.9148V39.3198H142.398V33.1458C142.398 32.0678 142.139 31.2558 141.621 30.7098C141.103 30.1638 140.361 29.8908 139.395 29.8908C138.303 29.8908 137.442 30.2128 136.812 30.8568C136.182 31.4868 135.867 32.3968 135.867 33.5868V39.3198H133.851V28.1898H135.783V29.8698C136.189 29.2958 136.735 28.8548 137.421 28.5468C138.121 28.2388 138.912 28.0848 139.794 28.0848ZM151.358 26.4468H146.318V24.6198H158.477V26.4468H153.437V39.3198H151.358V26.4468ZM169.38 33.8178C169.38 33.9718 169.366 34.1748 169.338 34.4268H160.308C160.434 35.4068 160.861 36.1978 161.589 36.7998C162.331 37.3878 163.248 37.6818 164.34 37.6818C165.67 37.6818 166.741 37.2338 167.553 36.3378L168.666 37.6398C168.162 38.2278 167.532 38.6758 166.776 38.9838C166.034 39.2918 165.201 39.4458 164.277 39.4458C163.101 39.4458 162.058 39.2078 161.148 38.7318C160.238 38.2418 159.531 37.5628 159.027 36.6948C158.537 35.8268 158.292 34.8468 158.292 33.7548C158.292 32.6768 158.53 31.7038 159.006 30.8358C159.496 29.9678 160.161 29.2958 161.001 28.8198C161.855 28.3298 162.814 28.0848 163.878 28.0848C164.942 28.0848 165.887 28.3298 166.713 28.8198C167.553 29.2958 168.204 29.9678 168.666 30.8358C169.142 31.7038 169.38 32.6978 169.38 33.8178ZM163.878 29.7858C162.912 29.7858 162.1 30.0798 161.442 30.6678C160.798 31.2558 160.42 32.0258 160.308 32.9778H167.448C167.336 32.0398 166.951 31.2768 166.293 30.6888C165.649 30.0868 164.844 29.7858 163.878 29.7858ZM177.031 39.4458C175.897 39.4458 174.882 39.2008 173.986 38.7108C173.104 38.2208 172.411 37.5488 171.907 36.6948C171.403 35.8268 171.151 34.8468 171.151 33.7548C171.151 32.6628 171.403 31.6898 171.907 30.8358C172.411 29.9678 173.104 29.2958 173.986 28.8198C174.882 28.3298 175.897 28.0848 177.031 28.0848C178.039 28.0848 178.935 28.2878 179.719 28.6938C180.517 29.0998 181.133 29.6878 181.567 30.4578L180.034 31.4448C179.684 30.9128 179.25 30.5138 178.732 30.2478C178.214 29.9818 177.64 29.8488 177.01 29.8488C176.282 29.8488 175.624 30.0098 175.036 30.3318C174.462 30.6538 174.007 31.1158 173.671 31.7178C173.349 32.3058 173.188 32.9848 173.188 33.7548C173.188 34.5388 173.349 35.2318 173.671 35.8338C174.007 36.4218 174.462 36.8768 175.036 37.1988C175.624 37.5208 176.282 37.6818 177.01 37.6818C177.64 37.6818 178.214 37.5488 178.732 37.2828C179.25 37.0168 179.684 36.6178 180.034 36.0858L181.567 37.0518C181.133 37.8218 180.517 38.4168 179.719 38.8368C178.935 39.2428 178.039 39.4458 177.031 39.4458ZM189.976 28.0848C191.39 28.0848 192.51 28.4978 193.336 29.3238C194.176 30.1358 194.596 31.3328 194.596 32.9148V39.3198H192.58V33.1458C192.58 32.0678 192.321 31.2558 191.803 30.7098C191.285 30.1638 190.543 29.8908 189.577 29.8908C188.485 29.8908 187.624 30.2128 186.994 30.8568C186.364 31.4868 186.049 32.3968 186.049 33.5868V39.3198H184.033V23.7378H186.049V29.7648C186.469 29.2328 187.015 28.8198 187.687 28.5258C188.373 28.2318 189.136 28.0848 189.976 28.0848Z" fill="#2E363E"/>
</svg>
