<svg width="15" height="15" viewBox="0 0 15 15" fill="none" xmlns="http://www.w3.org/2000/svg">
<path d="M10.4367 9.16722H9.77835L9.54502 8.94221C10.3617 7.99222 10.8534 6.75888 10.8534 5.41722C10.8534 2.42555 8.42835 0.000549316 5.43669 0.000549316C2.44502 0.000549316 0.0200195 2.42555 0.0200195 5.41722C0.0200195 8.40888 2.44502 10.8339 5.43669 10.8339C6.77835 10.8339 8.01169 10.3422 8.96169 9.52555L9.18669 9.75888V10.4172L13.3534 14.5755L14.595 13.3339L10.4367 9.16722ZM5.43669 9.16722C3.36169 9.16722 1.68669 7.49222 1.68669 5.41722C1.68669 3.34222 3.36169 1.66722 5.43669 1.66722C7.51169 1.66722 9.18669 3.34222 9.18669 5.41722C9.18669 7.49222 7.51169 9.16722 5.43669 9.16722Z" fill="#757575"/>
</svg>
